G75*
G70*
%OFA0B0*%
%FSLAX24Y24*%
%IPPOS*%
%LPD*%
%AMOC8*
5,1,8,0,0,1.08239X$1,22.5*
%
%ADD10C,0.0000*%
%ADD11R,0.0197X0.0669*%
%ADD12R,0.0669X0.0197*%
%ADD13R,0.0300X0.0300*%
%ADD14R,0.0827X0.0827*%
%ADD15R,0.0433X0.0138*%
%ADD16R,0.0138X0.0433*%
%ADD17R,0.0600X0.0600*%
%ADD18C,0.0600*%
%ADD19OC8,0.0600*%
%ADD20R,0.0551X0.0138*%
%ADD21R,0.0748X0.0709*%
%ADD22C,0.0160*%
%ADD23C,0.0100*%
%ADD24C,0.0270*%
%ADD25C,0.0080*%
D10*
X002180Y000680D02*
X022180Y000680D01*
X022256Y000682D01*
X022332Y000688D01*
X022407Y000697D01*
X022482Y000711D01*
X022556Y000728D01*
X022629Y000749D01*
X022701Y000773D01*
X022772Y000802D01*
X022841Y000833D01*
X022908Y000868D01*
X022973Y000907D01*
X023037Y000949D01*
X023098Y000994D01*
X023157Y001042D01*
X023213Y001093D01*
X023267Y001147D01*
X023318Y001203D01*
X023366Y001262D01*
X023411Y001323D01*
X023453Y001387D01*
X023492Y001452D01*
X023527Y001519D01*
X023558Y001588D01*
X023587Y001659D01*
X023611Y001731D01*
X023632Y001804D01*
X023649Y001878D01*
X023663Y001953D01*
X023672Y002028D01*
X023678Y002104D01*
X023680Y002180D01*
X023680Y011180D01*
X023678Y011256D01*
X023672Y011332D01*
X023663Y011407D01*
X023649Y011482D01*
X023632Y011556D01*
X023611Y011629D01*
X023587Y011701D01*
X023558Y011772D01*
X023527Y011841D01*
X023492Y011908D01*
X023453Y011973D01*
X023411Y012037D01*
X023366Y012098D01*
X023318Y012157D01*
X023267Y012213D01*
X023213Y012267D01*
X023157Y012318D01*
X023098Y012366D01*
X023037Y012411D01*
X022973Y012453D01*
X022908Y012492D01*
X022841Y012527D01*
X022772Y012558D01*
X022701Y012587D01*
X022629Y012611D01*
X022556Y012632D01*
X022482Y012649D01*
X022407Y012663D01*
X022332Y012672D01*
X022256Y012678D01*
X022180Y012680D01*
X002180Y012680D01*
X002104Y012678D01*
X002028Y012672D01*
X001953Y012663D01*
X001878Y012649D01*
X001804Y012632D01*
X001731Y012611D01*
X001659Y012587D01*
X001588Y012558D01*
X001519Y012527D01*
X001452Y012492D01*
X001387Y012453D01*
X001323Y012411D01*
X001262Y012366D01*
X001203Y012318D01*
X001147Y012267D01*
X001093Y012213D01*
X001042Y012157D01*
X000994Y012098D01*
X000949Y012037D01*
X000907Y011973D01*
X000868Y011908D01*
X000833Y011841D01*
X000802Y011772D01*
X000773Y011701D01*
X000749Y011629D01*
X000728Y011556D01*
X000711Y011482D01*
X000697Y011407D01*
X000688Y011332D01*
X000682Y011256D01*
X000680Y011180D01*
X000680Y002180D01*
X000682Y002104D01*
X000688Y002028D01*
X000697Y001953D01*
X000711Y001878D01*
X000728Y001804D01*
X000749Y001731D01*
X000773Y001659D01*
X000802Y001588D01*
X000833Y001519D01*
X000868Y001452D01*
X000907Y001387D01*
X000949Y001323D01*
X000994Y001262D01*
X001042Y001203D01*
X001093Y001147D01*
X001147Y001093D01*
X001203Y001042D01*
X001262Y000994D01*
X001323Y000949D01*
X001387Y000907D01*
X001452Y000868D01*
X001519Y000833D01*
X001588Y000802D01*
X001659Y000773D01*
X001731Y000749D01*
X001804Y000728D01*
X001878Y000711D01*
X001953Y000697D01*
X002028Y000688D01*
X002104Y000682D01*
X002180Y000680D01*
D11*
X014790Y004180D03*
X015105Y004180D03*
X015420Y004180D03*
X015735Y004180D03*
X016050Y004180D03*
X016365Y004180D03*
X016680Y004180D03*
X016995Y004180D03*
X017310Y004180D03*
X017625Y004180D03*
X017940Y004180D03*
X018255Y004180D03*
X018570Y004180D03*
X018885Y004180D03*
X019200Y004180D03*
X019515Y004180D03*
X019515Y009101D03*
X019200Y009101D03*
X018885Y009101D03*
X018570Y009101D03*
X018255Y009101D03*
X017940Y009101D03*
X017625Y009101D03*
X017310Y009101D03*
X016995Y009101D03*
X016680Y009101D03*
X016365Y009101D03*
X016050Y009101D03*
X015735Y009101D03*
X015420Y009101D03*
X015105Y009101D03*
X014790Y009101D03*
D12*
X013806Y008373D03*
X013806Y008058D03*
X013806Y007743D03*
X013806Y007428D03*
X013806Y007113D03*
X013806Y006798D03*
X013806Y006483D03*
X013806Y006168D03*
X013806Y005853D03*
X013806Y005538D03*
X013806Y005223D03*
X013806Y004908D03*
D13*
X005980Y008555D03*
X005380Y008555D03*
X005380Y009180D03*
X005980Y009180D03*
X007380Y009555D03*
X007980Y009555D03*
X007980Y010243D03*
X007380Y010243D03*
X009680Y010230D03*
X009680Y009630D03*
X010680Y009630D03*
X010680Y010230D03*
X004980Y007180D03*
X004380Y007180D03*
X004380Y007880D03*
X004380Y008480D03*
X002230Y008930D03*
X001630Y008930D03*
X001630Y009680D03*
X002230Y009680D03*
X002230Y010430D03*
X001630Y010430D03*
X001630Y011180D03*
X002230Y011180D03*
X004380Y006430D03*
X004980Y006430D03*
X004380Y005730D03*
X004380Y005130D03*
X004480Y001680D03*
X003880Y001680D03*
D14*
X007180Y007180D03*
D15*
X006412Y007052D03*
X006412Y006796D03*
X006412Y007308D03*
X006412Y007564D03*
X007948Y007564D03*
X007948Y007308D03*
X007948Y007052D03*
X007948Y006796D03*
D16*
X007564Y006412D03*
X007308Y006412D03*
X007052Y006412D03*
X006796Y006412D03*
X006796Y007948D03*
X007052Y007948D03*
X007308Y007948D03*
X007564Y007948D03*
D17*
X010680Y011680D03*
X019680Y011680D03*
X010680Y001680D03*
D18*
X011680Y001680D03*
X012680Y001680D03*
X013680Y001680D03*
X014680Y001680D03*
X015680Y001680D03*
X016680Y001680D03*
X017680Y001680D03*
X018680Y001680D03*
X019680Y001680D03*
X020680Y001680D03*
X021680Y001680D03*
X022680Y001680D03*
X009180Y001680D03*
X008180Y001680D03*
X006680Y001680D03*
X005680Y001680D03*
X011680Y011680D03*
X012680Y011680D03*
X013680Y011680D03*
X014680Y011680D03*
X015680Y011680D03*
X016680Y011680D03*
X017680Y011680D03*
X020680Y011680D03*
X021680Y011680D03*
X022680Y011680D03*
D19*
X010680Y008680D03*
X009680Y008680D03*
X009680Y007680D03*
X010680Y007680D03*
X010680Y006680D03*
X009680Y006680D03*
X009680Y005680D03*
X010680Y005680D03*
X010680Y004680D03*
X009680Y004680D03*
D20*
X002723Y005668D03*
X002723Y005924D03*
X002723Y006180D03*
X002723Y006436D03*
X002723Y006692D03*
D21*
X001680Y007755D03*
X001680Y004605D03*
D22*
X001407Y001172D02*
X001694Y001007D01*
X002014Y000921D01*
X002180Y000910D01*
X022180Y000910D01*
X022346Y000921D01*
X022666Y001007D01*
X022953Y001172D01*
X023188Y001407D01*
X023353Y001694D01*
X023439Y002014D01*
X023450Y002180D01*
X023450Y011180D01*
X023439Y011346D01*
X023353Y011666D01*
X023188Y011953D01*
X022953Y012188D01*
X022666Y012353D01*
X022346Y012439D01*
X022346Y012439D01*
X022180Y012450D01*
X002180Y012450D01*
X002014Y012439D01*
X001694Y012353D01*
X001407Y012188D01*
X001172Y011953D01*
X001007Y011666D01*
X000921Y011346D01*
X000910Y011180D01*
X000910Y002180D01*
X000921Y002014D01*
X001007Y001694D01*
X001172Y001407D01*
X001407Y001172D01*
X001436Y001156D02*
X022924Y001156D01*
X022929Y001307D02*
X022768Y001240D01*
X022592Y001240D01*
X022431Y001307D01*
X022307Y001431D01*
X022240Y001592D01*
X022240Y001768D01*
X022265Y001827D01*
X021101Y002990D01*
X019639Y002990D01*
X019759Y002870D01*
X020759Y002870D01*
X021533Y002095D01*
X021592Y002120D01*
X021768Y002120D01*
X021929Y002053D01*
X022053Y001929D01*
X022120Y001768D01*
X022120Y001592D01*
X022053Y001431D01*
X021929Y001307D01*
X021768Y001240D01*
X021592Y001240D01*
X021431Y001307D01*
X021307Y001431D01*
X021240Y001592D01*
X021240Y001768D01*
X021265Y001827D01*
X020601Y002490D01*
X019639Y002490D01*
X019759Y002370D01*
X020259Y002370D01*
X020533Y002095D01*
X020592Y002120D01*
X020768Y002120D01*
X020929Y002053D01*
X021053Y001929D01*
X021120Y001768D01*
X021120Y001592D01*
X021053Y001431D01*
X020929Y001307D01*
X020768Y001240D01*
X020592Y001240D01*
X020431Y001307D01*
X020307Y001431D01*
X020240Y001592D01*
X020240Y001768D01*
X020265Y001827D01*
X020101Y001990D01*
X019992Y001990D01*
X020053Y001929D01*
X020120Y001768D01*
X020120Y001592D01*
X020053Y001431D01*
X019929Y001307D01*
X019768Y001240D01*
X019592Y001240D01*
X019431Y001307D01*
X019307Y001431D01*
X019240Y001592D01*
X019240Y001768D01*
X019265Y001827D01*
X018065Y003026D01*
X018065Y003705D01*
X017783Y003705D01*
X017782Y003706D01*
X017781Y003705D01*
X017500Y003705D01*
X017500Y003129D01*
X018533Y002095D01*
X018592Y002120D01*
X018768Y002120D01*
X018929Y002053D01*
X019053Y001929D01*
X019120Y001768D01*
X019120Y001592D01*
X019053Y001431D01*
X018929Y001307D01*
X018768Y001240D01*
X018592Y001240D01*
X018431Y001307D01*
X018307Y001431D01*
X018240Y001592D01*
X018240Y001768D01*
X018265Y001827D01*
X017185Y002906D01*
X017185Y002444D01*
X017533Y002095D01*
X017592Y002120D01*
X017768Y002120D01*
X017929Y002053D01*
X018053Y001929D01*
X018120Y001768D01*
X018120Y001592D01*
X018053Y001431D01*
X017929Y001307D01*
X017768Y001240D01*
X017592Y001240D01*
X017431Y001307D01*
X017307Y001431D01*
X017240Y001592D01*
X017240Y001768D01*
X017265Y001827D01*
X016870Y002221D01*
X016870Y002078D01*
X016929Y002053D01*
X017053Y001929D01*
X017120Y001768D01*
X017120Y001592D01*
X017053Y001431D01*
X016929Y001307D01*
X016768Y001240D01*
X016592Y001240D01*
X016431Y001307D01*
X016307Y001431D01*
X016240Y001592D01*
X016240Y001768D01*
X016307Y001929D01*
X016431Y002053D01*
X016490Y002078D01*
X016490Y002221D01*
X016095Y001827D01*
X016120Y001768D01*
X016120Y001592D01*
X016053Y001431D01*
X015929Y001307D01*
X015768Y001240D01*
X015592Y001240D01*
X015431Y001307D01*
X015307Y001431D01*
X015240Y001592D01*
X015240Y001768D01*
X015307Y001929D01*
X015431Y002053D01*
X015592Y002120D01*
X015768Y002120D01*
X015827Y002095D01*
X016175Y002444D01*
X016175Y003666D01*
X016172Y003665D01*
X016050Y003665D01*
X016050Y004180D01*
X016050Y004695D01*
X015928Y004695D01*
X015882Y004682D01*
X015841Y004659D01*
X015837Y004655D01*
X015579Y004655D01*
X015578Y004654D01*
X015577Y004655D01*
X015264Y004655D01*
X015263Y004654D01*
X015262Y004655D01*
X014949Y004655D01*
X014948Y004654D01*
X014947Y004655D01*
X014634Y004655D01*
X014552Y004573D01*
X014552Y003787D01*
X014600Y003739D01*
X014600Y003619D01*
X014101Y003120D01*
X012851Y003120D01*
X011827Y002095D01*
X011768Y002120D01*
X011592Y002120D01*
X011431Y002053D01*
X011307Y001929D01*
X011240Y001768D01*
X011240Y001592D01*
X011307Y001431D01*
X011431Y001307D01*
X011592Y001240D01*
X011768Y001240D01*
X011929Y001307D01*
X012053Y001431D01*
X012120Y001592D01*
X012120Y001768D01*
X012095Y001827D01*
X013009Y002740D01*
X014221Y002740D01*
X014101Y002620D01*
X013351Y002620D01*
X012827Y002095D01*
X012768Y002120D01*
X012592Y002120D01*
X012431Y002053D01*
X012307Y001929D01*
X012240Y001768D01*
X012240Y001592D01*
X012307Y001431D01*
X012431Y001307D01*
X012592Y001240D01*
X012768Y001240D01*
X012929Y001307D01*
X013053Y001431D01*
X013120Y001592D01*
X013120Y001768D01*
X013095Y001827D01*
X013509Y002240D01*
X014221Y002240D01*
X014101Y002120D01*
X013851Y002120D01*
X013827Y002095D01*
X013768Y002120D01*
X013592Y002120D01*
X013431Y002053D01*
X013307Y001929D01*
X013240Y001768D01*
X013240Y001592D01*
X013307Y001431D01*
X013431Y001307D01*
X013592Y001240D01*
X013768Y001240D01*
X013929Y001307D01*
X014053Y001431D01*
X014120Y001592D01*
X014120Y001740D01*
X014240Y001740D01*
X014240Y001592D01*
X014307Y001431D01*
X014431Y001307D01*
X014592Y001240D01*
X014768Y001240D01*
X014929Y001307D01*
X015053Y001431D01*
X015120Y001592D01*
X015120Y001768D01*
X015095Y001827D01*
X015925Y002656D01*
X015925Y003666D01*
X015928Y003665D01*
X016050Y003665D01*
X016050Y004180D01*
X016050Y004180D01*
X016050Y004180D01*
X016050Y004695D01*
X016172Y004695D01*
X016218Y004682D01*
X016259Y004659D01*
X016263Y004655D01*
X016521Y004655D01*
X016523Y004654D01*
X016524Y004655D01*
X016836Y004655D01*
X016837Y004654D01*
X016839Y004655D01*
X017151Y004655D01*
X017152Y004654D01*
X017154Y004655D01*
X017466Y004655D01*
X017467Y004654D01*
X017468Y004655D01*
X017781Y004655D01*
X017782Y004654D01*
X017783Y004655D01*
X018096Y004655D01*
X018097Y004654D01*
X018098Y004655D01*
X018411Y004655D01*
X018412Y004654D01*
X018413Y004655D01*
X018726Y004655D01*
X018727Y004654D01*
X018728Y004655D01*
X019041Y004655D01*
X019042Y004654D01*
X019043Y004655D01*
X019302Y004655D01*
X019306Y004659D01*
X019347Y004682D01*
X019393Y004695D01*
X019515Y004695D01*
X019515Y004180D01*
X019793Y004180D01*
X019793Y004538D01*
X019781Y004584D01*
X019757Y004625D01*
X019724Y004659D01*
X019683Y004682D01*
X019637Y004695D01*
X019515Y004695D01*
X019515Y004180D01*
X019515Y004180D01*
X019793Y004180D01*
X019793Y003822D01*
X019781Y003776D01*
X019757Y003735D01*
X019724Y003701D01*
X019683Y003678D01*
X019637Y003665D01*
X019515Y003665D01*
X019515Y004180D01*
X019515Y004180D01*
X019515Y004180D01*
X019515Y003665D01*
X019463Y003665D01*
X019759Y003370D01*
X021259Y003370D01*
X022533Y002095D01*
X022592Y002120D01*
X022768Y002120D01*
X022929Y002053D01*
X023053Y001929D01*
X023120Y001768D01*
X023120Y001592D01*
X023053Y001431D01*
X022929Y001307D01*
X022936Y001314D02*
X023095Y001314D01*
X023070Y001473D02*
X023225Y001473D01*
X023317Y001631D02*
X023120Y001631D01*
X023111Y001790D02*
X023379Y001790D01*
X023421Y001948D02*
X023034Y001948D01*
X022800Y002107D02*
X023445Y002107D01*
X023450Y002265D02*
X022364Y002265D01*
X022522Y002107D02*
X022560Y002107D01*
X022249Y001790D02*
X022111Y001790D01*
X022120Y001631D02*
X022240Y001631D01*
X022290Y001473D02*
X022070Y001473D01*
X021936Y001314D02*
X022424Y001314D01*
X022630Y000997D02*
X001730Y000997D01*
X001265Y001314D02*
X005424Y001314D01*
X005431Y001307D02*
X005592Y001240D01*
X005768Y001240D01*
X005929Y001307D01*
X006053Y001431D01*
X006120Y001592D01*
X006120Y001768D01*
X006053Y001929D01*
X005929Y002053D01*
X005768Y002120D01*
X005592Y002120D01*
X005431Y002053D01*
X005307Y001929D01*
X005282Y001870D01*
X004770Y001870D01*
X004770Y001888D01*
X004688Y001970D01*
X004272Y001970D01*
X004199Y001897D01*
X004198Y001899D01*
X004174Y001941D01*
X004141Y001974D01*
X004099Y001998D01*
X004054Y002010D01*
X003880Y002010D01*
X003880Y001680D01*
X003880Y001680D01*
X003880Y001350D01*
X004054Y001350D01*
X004099Y001362D01*
X004141Y001386D01*
X004174Y001419D01*
X004198Y001461D01*
X004199Y001463D01*
X004272Y001390D01*
X004688Y001390D01*
X004770Y001472D01*
X004770Y001490D01*
X005282Y001490D01*
X005307Y001431D01*
X005431Y001307D01*
X005290Y001473D02*
X004770Y001473D01*
X004710Y001948D02*
X005326Y001948D01*
X005560Y002107D02*
X000915Y002107D01*
X000910Y002265D02*
X009496Y002265D01*
X009338Y002107D02*
X009300Y002107D01*
X009327Y002095D02*
X009268Y002120D01*
X009092Y002120D01*
X008931Y002053D01*
X008807Y001929D01*
X008740Y001768D01*
X008740Y001592D01*
X008807Y001431D01*
X008931Y001307D01*
X009092Y001240D01*
X009268Y001240D01*
X009429Y001307D01*
X009553Y001431D01*
X009620Y001592D01*
X009620Y001768D01*
X009595Y001827D01*
X011870Y004101D01*
X011870Y005101D01*
X012432Y005663D01*
X012895Y005663D01*
X012186Y004955D01*
X012125Y004955D01*
X012024Y004913D01*
X011947Y004836D01*
X011905Y004735D01*
X011905Y004625D01*
X011947Y004524D01*
X012024Y004447D01*
X012125Y004405D01*
X012235Y004405D01*
X012336Y004447D01*
X012413Y004524D01*
X012455Y004625D01*
X012455Y004686D01*
X013117Y005348D01*
X013292Y005348D01*
X013291Y005345D01*
X013291Y005223D01*
X013291Y005101D01*
X013304Y005055D01*
X013327Y005014D01*
X013331Y005010D01*
X013331Y004752D01*
X013413Y004670D01*
X013616Y004670D01*
X013616Y003885D01*
X013351Y003620D01*
X012351Y003620D01*
X010851Y002120D01*
X010322Y002120D01*
X010240Y002038D01*
X010240Y001322D01*
X010322Y001240D01*
X011038Y001240D01*
X011120Y001322D01*
X011120Y001851D01*
X012509Y003240D01*
X013509Y003240D01*
X013620Y003351D01*
X013996Y003727D01*
X013996Y004670D01*
X014199Y004670D01*
X014281Y004752D01*
X014281Y005010D01*
X014285Y005014D01*
X014308Y005055D01*
X014321Y005101D01*
X014321Y005223D01*
X013806Y005223D01*
X013806Y005223D01*
X013291Y005223D01*
X013806Y005223D01*
X013806Y005223D01*
X014321Y005223D01*
X014321Y005345D01*
X014320Y005348D01*
X014617Y005348D01*
X014884Y005615D01*
X014995Y005726D01*
X014995Y008384D01*
X014752Y008627D01*
X014892Y008627D01*
X014896Y008623D01*
X014937Y008599D01*
X014983Y008587D01*
X015105Y008587D01*
X015105Y009101D01*
X015105Y009101D01*
X015105Y008587D01*
X015227Y008587D01*
X015273Y008599D01*
X015314Y008623D01*
X015318Y008627D01*
X015577Y008627D01*
X015578Y008628D01*
X015579Y008627D01*
X015795Y008627D01*
X015789Y008620D01*
X015476Y008620D01*
X015365Y008509D01*
X015365Y008509D01*
X015226Y008370D01*
X015115Y008259D01*
X015115Y005384D01*
X014936Y005205D01*
X014875Y005205D01*
X014774Y005163D01*
X014697Y005086D01*
X014655Y004985D01*
X014655Y004875D01*
X014697Y004774D01*
X014774Y004697D01*
X014875Y004655D01*
X014985Y004655D01*
X015086Y004697D01*
X015163Y004774D01*
X015205Y004875D01*
X015205Y004936D01*
X015495Y005226D01*
X015495Y008101D01*
X015634Y008240D01*
X015946Y008240D01*
X016057Y008351D01*
X016240Y008534D01*
X016240Y008627D01*
X016521Y008627D01*
X016523Y008628D01*
X016524Y008627D01*
X016782Y008627D01*
X016786Y008623D01*
X016827Y008599D01*
X016873Y008587D01*
X016995Y008587D01*
X017117Y008587D01*
X017163Y008599D01*
X017204Y008623D01*
X017208Y008627D01*
X017435Y008627D01*
X017435Y007031D01*
X017780Y006686D01*
X017780Y006625D01*
X017822Y006524D01*
X017899Y006447D01*
X018000Y006405D01*
X018110Y006405D01*
X018211Y006447D01*
X018288Y006524D01*
X018330Y006625D01*
X018330Y006735D01*
X018288Y006836D01*
X018211Y006913D01*
X018110Y006955D01*
X018049Y006955D01*
X017815Y007189D01*
X017815Y007401D01*
X018030Y007186D01*
X018030Y007125D01*
X018072Y007024D01*
X018149Y006947D01*
X018250Y006905D01*
X018360Y006905D01*
X018461Y006947D01*
X018538Y007024D01*
X018580Y007125D01*
X018580Y007235D01*
X018538Y007336D01*
X018461Y007413D01*
X018360Y007455D01*
X018299Y007455D01*
X018130Y007624D01*
X018130Y007961D01*
X018405Y007686D01*
X018405Y007625D01*
X018447Y007524D01*
X018524Y007447D01*
X018625Y007405D01*
X018735Y007405D01*
X018836Y007447D01*
X018913Y007524D01*
X018955Y007625D01*
X018955Y007735D01*
X018913Y007836D01*
X018836Y007913D01*
X018735Y007955D01*
X018674Y007955D01*
X018445Y008184D01*
X018445Y008396D01*
X018655Y008186D01*
X018655Y008125D01*
X018697Y008024D01*
X018774Y007947D01*
X018875Y007905D01*
X018985Y007905D01*
X019086Y007947D01*
X019163Y008024D01*
X019205Y008125D01*
X019205Y008235D01*
X019163Y008336D01*
X019086Y008413D01*
X018985Y008455D01*
X018924Y008455D01*
X018792Y008587D01*
X018885Y008587D01*
X019007Y008587D01*
X019053Y008599D01*
X019094Y008623D01*
X019098Y008627D01*
X019302Y008627D01*
X019306Y008623D01*
X019347Y008599D01*
X019393Y008587D01*
X019515Y008587D01*
X019637Y008587D01*
X019683Y008599D01*
X019724Y008623D01*
X019757Y008656D01*
X019781Y008697D01*
X019793Y008743D01*
X019793Y009101D01*
X019515Y009101D01*
X019515Y009101D01*
X019515Y008587D01*
X019515Y009101D01*
X019515Y009101D01*
X019793Y009101D01*
X019793Y009460D01*
X019781Y009505D01*
X019757Y009546D01*
X019724Y009580D01*
X019683Y009604D01*
X019637Y009616D01*
X019515Y009616D01*
X019515Y009101D01*
X020101Y009101D01*
X022680Y011680D01*
X022700Y011700D02*
X022660Y011700D01*
X022660Y012160D01*
X022642Y012160D01*
X022568Y012148D01*
X022496Y012125D01*
X022428Y012091D01*
X022367Y012046D01*
X022314Y011993D01*
X022269Y011932D01*
X022235Y011864D01*
X022212Y011792D01*
X022200Y011718D01*
X022200Y011700D01*
X022660Y011700D01*
X022660Y011660D01*
X022200Y011660D01*
X022200Y011642D01*
X022212Y011568D01*
X022235Y011496D01*
X022269Y011428D01*
X022314Y011367D01*
X022367Y011314D01*
X022428Y011269D01*
X022496Y011235D01*
X022568Y011212D01*
X022642Y011200D01*
X022660Y011200D01*
X022660Y011660D01*
X022700Y011660D01*
X022700Y011700D01*
X022700Y012160D01*
X022718Y012160D01*
X022792Y012148D01*
X022864Y012125D01*
X022932Y012091D01*
X022993Y012046D01*
X023046Y011993D01*
X023091Y011932D01*
X023125Y011864D01*
X023148Y011792D01*
X023160Y011718D01*
X023160Y011700D01*
X022700Y011700D01*
X022700Y011660D02*
X023160Y011660D01*
X023160Y011642D01*
X023148Y011568D01*
X023125Y011496D01*
X023091Y011428D01*
X023046Y011367D01*
X022993Y011314D01*
X022932Y011269D01*
X022864Y011235D01*
X022792Y011212D01*
X022718Y011200D01*
X022700Y011200D01*
X022700Y011660D01*
X022700Y011617D02*
X022660Y011617D01*
X022660Y011458D02*
X022700Y011458D01*
X022700Y011300D02*
X022660Y011300D01*
X022973Y011300D02*
X023442Y011300D01*
X023450Y011141D02*
X020410Y011141D01*
X020533Y011265D02*
X020592Y011240D01*
X020768Y011240D01*
X020929Y011307D01*
X021053Y011431D01*
X021120Y011592D01*
X021120Y011768D01*
X021053Y011929D01*
X020929Y012053D01*
X020768Y012120D01*
X020592Y012120D01*
X020431Y012053D01*
X020307Y011929D01*
X020240Y011768D01*
X020240Y011592D01*
X020265Y011533D01*
X020120Y011389D01*
X020120Y012038D01*
X020038Y012120D01*
X019322Y012120D01*
X019240Y012038D01*
X019240Y011509D01*
X018226Y010495D01*
X016764Y010495D01*
X017533Y011265D01*
X017592Y011240D01*
X017768Y011240D01*
X017929Y011307D01*
X018053Y011431D01*
X018120Y011592D01*
X018120Y011768D01*
X018053Y011929D01*
X017929Y012053D01*
X017768Y012120D01*
X017592Y012120D01*
X017431Y012053D01*
X017307Y011929D01*
X017240Y011768D01*
X017240Y011592D01*
X017265Y011533D01*
X016601Y010870D01*
X016139Y010870D01*
X016533Y011265D01*
X016592Y011240D01*
X016768Y011240D01*
X016929Y011307D01*
X017053Y011431D01*
X017120Y011592D01*
X017120Y011768D01*
X017053Y011929D01*
X016929Y012053D01*
X016768Y012120D01*
X016592Y012120D01*
X016431Y012053D01*
X016307Y011929D01*
X016240Y011768D01*
X016240Y011592D01*
X016265Y011533D01*
X014600Y009869D01*
X014600Y009542D01*
X014552Y009494D01*
X014552Y009389D01*
X014517Y009424D01*
X014517Y009485D01*
X014476Y009586D01*
X014398Y009663D01*
X014297Y009705D01*
X014188Y009705D01*
X014087Y009663D01*
X014009Y009586D01*
X013968Y009485D01*
X013968Y009375D01*
X014009Y009274D01*
X014087Y009197D01*
X014188Y009155D01*
X014249Y009155D01*
X014303Y009101D01*
X014303Y008551D01*
X014285Y008582D01*
X014251Y008615D01*
X014210Y008639D01*
X014164Y008651D01*
X013806Y008651D01*
X013448Y008651D01*
X013402Y008639D01*
X013370Y008621D01*
X013370Y009101D01*
X015533Y011265D01*
X015592Y011240D01*
X015768Y011240D01*
X015929Y011307D01*
X016053Y011431D01*
X016120Y011592D01*
X016120Y011768D01*
X016053Y011929D01*
X015929Y012053D01*
X015768Y012120D01*
X015592Y012120D01*
X015431Y012053D01*
X015307Y011929D01*
X015240Y011768D01*
X015240Y011592D01*
X015265Y011533D01*
X012995Y009264D01*
X012995Y009726D01*
X014533Y011265D01*
X014592Y011240D01*
X014768Y011240D01*
X014929Y011307D01*
X015053Y011431D01*
X015120Y011592D01*
X015120Y011768D01*
X015053Y011929D01*
X014929Y012053D01*
X014768Y012120D01*
X014592Y012120D01*
X014431Y012053D01*
X014307Y011929D01*
X014240Y011768D01*
X014240Y011592D01*
X014265Y011533D01*
X012620Y009889D01*
X012620Y010351D01*
X013533Y011265D01*
X013592Y011240D01*
X013768Y011240D01*
X013929Y011307D01*
X014053Y011431D01*
X014120Y011592D01*
X014120Y011768D01*
X014053Y011929D01*
X013929Y012053D01*
X013768Y012120D01*
X013592Y012120D01*
X013431Y012053D01*
X013307Y011929D01*
X013240Y011768D01*
X013240Y011592D01*
X013265Y011533D01*
X012245Y010514D01*
X012245Y010976D01*
X012533Y011265D01*
X012592Y011240D01*
X012768Y011240D01*
X012929Y011307D01*
X013053Y011431D01*
X013120Y011592D01*
X013120Y011768D01*
X013053Y011929D01*
X012929Y012053D01*
X012768Y012120D01*
X012592Y012120D01*
X012431Y012053D01*
X012307Y011929D01*
X012240Y011768D01*
X012240Y011592D01*
X012265Y011533D01*
X011870Y011139D01*
X011870Y011282D01*
X011929Y011307D01*
X012053Y011431D01*
X012120Y011592D01*
X012120Y011768D01*
X012053Y011929D01*
X011929Y012053D01*
X011768Y012120D01*
X011592Y012120D01*
X011431Y012053D01*
X011307Y011929D01*
X011240Y011768D01*
X011240Y011592D01*
X011307Y011431D01*
X011431Y011307D01*
X011490Y011282D01*
X011490Y011139D01*
X011120Y011509D01*
X011120Y012038D01*
X011038Y012120D01*
X010322Y012120D01*
X010240Y012038D01*
X010240Y011322D01*
X010322Y011240D01*
X010851Y011240D01*
X011115Y010976D01*
X011115Y008867D01*
X010870Y009112D01*
X010870Y009340D01*
X010888Y009340D01*
X010970Y009422D01*
X010970Y009838D01*
X010897Y009911D01*
X010899Y009912D01*
X010941Y009936D01*
X010974Y009969D01*
X010998Y010011D01*
X011010Y010056D01*
X011010Y010230D01*
X011010Y010404D01*
X010998Y010449D01*
X010974Y010491D01*
X010941Y010524D01*
X010899Y010548D01*
X010854Y010560D01*
X010680Y010560D01*
X010680Y010230D01*
X010680Y010230D01*
X011010Y010230D01*
X010680Y010230D01*
X010680Y010230D01*
X010680Y010230D01*
X010350Y010230D01*
X010350Y010404D01*
X010362Y010449D01*
X010386Y010491D01*
X010419Y010524D01*
X010461Y010548D01*
X010506Y010560D01*
X010680Y010560D01*
X010680Y010230D01*
X010350Y010230D01*
X010350Y010056D01*
X010362Y010011D01*
X010386Y009969D01*
X010419Y009936D01*
X010461Y009912D01*
X010463Y009911D01*
X010390Y009838D01*
X010390Y009422D01*
X010472Y009340D01*
X010490Y009340D01*
X010490Y009112D01*
X010240Y008862D01*
X010240Y008498D01*
X010498Y008240D01*
X010862Y008240D01*
X011115Y008493D01*
X011115Y007867D01*
X010862Y008120D01*
X010498Y008120D01*
X010240Y007862D01*
X010240Y007498D01*
X010317Y007421D01*
X010235Y007455D01*
X010125Y007455D01*
X010043Y007421D01*
X010120Y007498D01*
X010120Y007862D01*
X009862Y008120D01*
X009498Y008120D01*
X009245Y007867D01*
X009245Y008259D01*
X009134Y008370D01*
X009120Y008370D01*
X008892Y008597D01*
X008892Y008672D01*
X008874Y008718D01*
X008990Y008601D01*
X009101Y008490D01*
X009248Y008490D01*
X009498Y008240D01*
X009862Y008240D01*
X010120Y008498D01*
X010120Y008862D01*
X009870Y009112D01*
X009870Y009340D01*
X009888Y009340D01*
X009970Y009422D01*
X009970Y009838D01*
X009897Y009911D01*
X009899Y009912D01*
X009941Y009936D01*
X009974Y009969D01*
X009998Y010011D01*
X010010Y010056D01*
X010010Y010230D01*
X010010Y010404D01*
X009998Y010449D01*
X009974Y010491D01*
X009941Y010524D01*
X009899Y010548D01*
X009854Y010560D01*
X009680Y010560D01*
X009680Y010230D01*
X009680Y010230D01*
X010010Y010230D01*
X009680Y010230D01*
X009680Y010230D01*
X009680Y010230D01*
X009350Y010230D01*
X009350Y010404D01*
X009362Y010449D01*
X009386Y010491D01*
X009419Y010524D01*
X009461Y010548D01*
X009506Y010560D01*
X009680Y010560D01*
X009680Y010230D01*
X009350Y010230D01*
X009350Y010056D01*
X009362Y010011D01*
X009386Y009969D01*
X009419Y009936D01*
X009461Y009912D01*
X009463Y009911D01*
X009390Y009838D01*
X009390Y009422D01*
X009472Y009340D01*
X009490Y009340D01*
X009490Y009112D01*
X009253Y008875D01*
X009009Y009120D01*
X007976Y009120D01*
X007865Y009009D01*
X007485Y008629D01*
X007430Y008574D01*
X006824Y009180D01*
X007009Y009365D01*
X007090Y009365D01*
X007090Y009347D01*
X007172Y009265D01*
X007588Y009265D01*
X007661Y009338D01*
X007662Y009336D01*
X007686Y009294D01*
X007719Y009261D01*
X007761Y009237D01*
X007806Y009225D01*
X007980Y009225D01*
X008154Y009225D01*
X008199Y009237D01*
X008241Y009261D01*
X008274Y009294D01*
X008298Y009336D01*
X008310Y009381D01*
X008310Y009555D01*
X008310Y009729D01*
X008298Y009774D01*
X008274Y009816D01*
X008241Y009849D01*
X008199Y009873D01*
X008154Y009885D01*
X007980Y009885D01*
X007980Y009555D01*
X007980Y009555D01*
X008310Y009555D01*
X007980Y009555D01*
X007980Y009555D01*
X007980Y009885D01*
X007806Y009885D01*
X007761Y009873D01*
X007719Y009849D01*
X007686Y009816D01*
X007662Y009774D01*
X007661Y009772D01*
X007588Y009845D01*
X007570Y009845D01*
X007570Y009953D01*
X007588Y009953D01*
X007661Y010026D01*
X007662Y010023D01*
X007686Y009982D01*
X007719Y009948D01*
X007761Y009925D01*
X007806Y009913D01*
X007980Y009913D01*
X008154Y009913D01*
X008199Y009925D01*
X008241Y009948D01*
X008274Y009982D01*
X008298Y010023D01*
X008310Y010069D01*
X008310Y010242D01*
X007980Y010242D01*
X007980Y009913D01*
X007980Y010242D01*
X007980Y010242D01*
X007980Y010243D01*
X007980Y010572D01*
X007806Y010572D01*
X007761Y010560D01*
X007719Y010537D01*
X007686Y010503D01*
X007662Y010462D01*
X007661Y010459D01*
X007588Y010532D01*
X007172Y010532D01*
X007090Y010450D01*
X007090Y010035D01*
X007172Y009953D01*
X007190Y009953D01*
X007190Y009845D01*
X007172Y009845D01*
X007090Y009763D01*
X007090Y009745D01*
X006851Y009745D01*
X006476Y009370D01*
X006270Y009370D01*
X006270Y009388D01*
X006188Y009470D01*
X005772Y009470D01*
X005690Y009388D01*
X005690Y008972D01*
X005772Y008890D01*
X006188Y008890D01*
X006270Y008972D01*
X006270Y008990D01*
X006476Y008990D01*
X006846Y008620D01*
X006664Y008620D01*
X006226Y008182D01*
X005205Y008182D01*
X005205Y008235D01*
X005192Y008265D01*
X005588Y008265D01*
X005661Y008338D01*
X005662Y008336D01*
X005686Y008294D01*
X005719Y008261D01*
X005761Y008237D01*
X005806Y008225D01*
X005980Y008225D01*
X006154Y008225D01*
X006199Y008237D01*
X006241Y008261D01*
X006274Y008294D01*
X006298Y008336D01*
X006310Y008381D01*
X006310Y008555D01*
X006310Y008729D01*
X006298Y008774D01*
X006274Y008816D01*
X006241Y008849D01*
X006199Y008873D01*
X006154Y008885D01*
X005980Y008885D01*
X005980Y008555D01*
X005980Y008555D01*
X006310Y008555D01*
X005980Y008555D01*
X005980Y008555D01*
X005980Y008885D01*
X005806Y008885D01*
X005761Y008873D01*
X005719Y008849D01*
X005686Y008816D01*
X005662Y008774D01*
X005661Y008772D01*
X005588Y008845D01*
X005570Y008845D01*
X005570Y008890D01*
X005588Y008890D01*
X005670Y008972D01*
X005670Y009388D01*
X005588Y009470D01*
X005172Y009470D01*
X005090Y009388D01*
X005090Y009370D01*
X004101Y009370D01*
X003990Y009259D01*
X003752Y009021D01*
X003726Y009086D01*
X003648Y009163D01*
X003547Y009205D01*
X003438Y009205D01*
X003337Y009163D01*
X003294Y009120D01*
X002520Y009120D01*
X002520Y009138D01*
X002438Y009220D01*
X002022Y009220D01*
X001940Y009138D01*
X001940Y008722D01*
X002022Y008640D01*
X002438Y008640D01*
X002520Y008722D01*
X002520Y008740D01*
X003294Y008740D01*
X003337Y008697D01*
X003438Y008655D01*
X003547Y008655D01*
X003615Y008683D01*
X003615Y007384D01*
X003113Y006882D01*
X003076Y006882D01*
X003057Y006901D01*
X002390Y006901D01*
X002308Y006819D01*
X002308Y006565D01*
X002309Y006564D01*
X002308Y006563D01*
X002308Y006309D01*
X002309Y006308D01*
X002308Y006307D01*
X002308Y006053D01*
X002309Y006052D01*
X002308Y006051D01*
X002308Y005852D01*
X002304Y005848D01*
X002280Y005807D01*
X002268Y005761D01*
X002268Y005668D01*
X002268Y005576D01*
X002280Y005530D01*
X002304Y005489D01*
X002337Y005455D01*
X002378Y005432D01*
X002424Y005419D01*
X002723Y005419D01*
X002723Y005668D01*
X002268Y005668D01*
X002723Y005668D01*
X002723Y005668D01*
X002723Y005668D01*
X002723Y005419D01*
X003023Y005419D01*
X003068Y005432D01*
X003109Y005455D01*
X003143Y005489D01*
X003167Y005530D01*
X003179Y005576D01*
X003179Y005668D01*
X002723Y005668D01*
X002723Y005668D01*
X003179Y005668D01*
X003179Y005761D01*
X003167Y005807D01*
X003143Y005848D01*
X003139Y005852D01*
X003139Y005990D01*
X003759Y005990D01*
X003870Y006101D01*
X004009Y006240D01*
X004090Y006240D01*
X004090Y006222D01*
X004172Y006140D01*
X004190Y006140D01*
X004190Y006020D01*
X004172Y006020D01*
X004090Y005938D01*
X004090Y005522D01*
X004163Y005449D01*
X004161Y005448D01*
X004119Y005424D01*
X004086Y005391D01*
X004062Y005349D01*
X004050Y005304D01*
X004050Y005130D01*
X004380Y005130D01*
X004710Y005130D01*
X004710Y005304D01*
X004698Y005349D01*
X004674Y005391D01*
X004641Y005424D01*
X004599Y005448D01*
X004597Y005449D01*
X004670Y005522D01*
X004670Y005938D01*
X004588Y006020D01*
X004570Y006020D01*
X004570Y006140D01*
X004588Y006140D01*
X004670Y006222D01*
X004670Y006638D01*
X004588Y006720D01*
X004172Y006720D01*
X004090Y006638D01*
X004090Y006620D01*
X003851Y006620D01*
X003740Y006509D01*
X003601Y006370D01*
X003576Y006370D01*
X004134Y006928D01*
X004172Y006890D01*
X004588Y006890D01*
X004670Y006972D01*
X004670Y007388D01*
X004588Y007470D01*
X004570Y007470D01*
X004570Y007590D01*
X004588Y007590D01*
X004670Y007672D01*
X004670Y008088D01*
X004597Y008161D01*
X004599Y008162D01*
X004641Y008186D01*
X004655Y008200D01*
X004655Y008125D01*
X004697Y008024D01*
X004774Y007947D01*
X004875Y007905D01*
X004936Y007905D01*
X005039Y007803D01*
X006134Y007803D01*
X006126Y007800D01*
X006085Y007777D01*
X006052Y007743D01*
X006028Y007702D01*
X006016Y007656D01*
X006016Y007564D01*
X006412Y007564D01*
X006412Y007564D01*
X006412Y007813D01*
X006394Y007813D01*
X006495Y007914D01*
X006587Y008006D01*
X006587Y007813D01*
X006412Y007813D01*
X006412Y007564D01*
X006412Y007564D01*
X006016Y007564D01*
X006016Y007471D01*
X006028Y007425D01*
X006052Y007384D01*
X006056Y007380D01*
X006056Y007242D01*
X005973Y007242D01*
X005726Y006995D01*
X005615Y006884D01*
X005615Y006634D01*
X005586Y006663D01*
X005485Y006705D01*
X005375Y006705D01*
X005274Y006663D01*
X005260Y006648D01*
X005188Y006720D01*
X004772Y006720D01*
X004690Y006638D01*
X004690Y006222D01*
X004772Y006140D01*
X005188Y006140D01*
X005260Y006212D01*
X005274Y006197D01*
X005375Y006155D01*
X005485Y006155D01*
X005586Y006197D01*
X005615Y006226D01*
X005615Y005601D01*
X007115Y004101D01*
X007226Y003990D01*
X008231Y003990D01*
X008274Y003947D01*
X008375Y003905D01*
X008485Y003905D01*
X008586Y003947D01*
X008663Y004024D01*
X008705Y004125D01*
X008705Y004235D01*
X008663Y004336D01*
X008586Y004413D01*
X008485Y004455D01*
X008375Y004455D01*
X008274Y004413D01*
X008231Y004370D01*
X007384Y004370D01*
X007264Y004490D01*
X009248Y004490D01*
X009498Y004240D01*
X009862Y004240D01*
X010120Y004498D01*
X010120Y004862D01*
X009862Y005120D01*
X009498Y005120D01*
X009248Y004870D01*
X007384Y004870D01*
X007099Y005155D01*
X007110Y005155D01*
X007211Y005197D01*
X007288Y005274D01*
X007330Y005375D01*
X007330Y005386D01*
X007615Y005101D01*
X007726Y004990D01*
X008731Y004990D01*
X008774Y004947D01*
X008875Y004905D01*
X008985Y004905D01*
X009086Y004947D01*
X009163Y005024D01*
X009205Y005125D01*
X009205Y005235D01*
X009163Y005336D01*
X009086Y005413D01*
X008985Y005455D01*
X008875Y005455D01*
X008774Y005413D01*
X008731Y005370D01*
X007884Y005370D01*
X007242Y006012D01*
X007242Y006016D01*
X007308Y006016D01*
X007401Y006016D01*
X007446Y006028D01*
X007487Y006052D01*
X007491Y006056D01*
X007691Y006056D01*
X007773Y006138D01*
X007773Y006194D01*
X008365Y005601D01*
X008476Y005490D01*
X009248Y005490D01*
X009498Y005240D01*
X009862Y005240D01*
X010120Y005498D01*
X010120Y005862D01*
X009862Y006120D01*
X009498Y006120D01*
X009248Y005870D01*
X008634Y005870D01*
X008330Y006174D01*
X008375Y006155D01*
X008485Y006155D01*
X008586Y006197D01*
X008663Y006274D01*
X008705Y006375D01*
X008705Y006436D01*
X008759Y006490D01*
X009248Y006490D01*
X009498Y006240D01*
X009862Y006240D01*
X010120Y006498D01*
X010120Y006862D01*
X010043Y006939D01*
X010125Y006905D01*
X010235Y006905D01*
X010317Y006939D01*
X010240Y006862D01*
X010240Y006498D01*
X010498Y006240D01*
X010862Y006240D01*
X011120Y006498D01*
X011120Y006862D01*
X010862Y007120D01*
X010498Y007120D01*
X010421Y007043D01*
X010455Y007125D01*
X010455Y007235D01*
X010421Y007317D01*
X010498Y007240D01*
X010862Y007240D01*
X011115Y007493D01*
X011115Y007351D01*
X011226Y007240D01*
X012423Y006043D01*
X012275Y006043D01*
X011601Y005370D01*
X011490Y005259D01*
X011490Y004259D01*
X009327Y002095D01*
X009060Y002107D02*
X008300Y002107D01*
X008268Y002120D02*
X008429Y002053D01*
X008553Y001929D01*
X008620Y001768D01*
X008620Y001592D01*
X008553Y001431D01*
X008429Y001307D01*
X008268Y001240D01*
X008092Y001240D01*
X007931Y001307D01*
X007807Y001431D01*
X007782Y001490D01*
X007078Y001490D01*
X007053Y001431D01*
X006929Y001307D01*
X006768Y001240D01*
X006592Y001240D01*
X006431Y001307D01*
X006307Y001431D01*
X006240Y001592D01*
X006240Y001768D01*
X006307Y001929D01*
X006431Y002053D01*
X006592Y002120D01*
X006768Y002120D01*
X006929Y002053D01*
X007053Y001929D01*
X007078Y001870D01*
X007782Y001870D01*
X007807Y001929D01*
X007931Y002053D01*
X008092Y002120D01*
X008268Y002120D01*
X008060Y002107D02*
X006800Y002107D01*
X006560Y002107D02*
X005800Y002107D01*
X006034Y001948D02*
X006326Y001948D01*
X006249Y001790D02*
X006111Y001790D01*
X006120Y001631D02*
X006240Y001631D01*
X006290Y001473D02*
X006070Y001473D01*
X005936Y001314D02*
X006424Y001314D01*
X006936Y001314D02*
X007924Y001314D01*
X007790Y001473D02*
X007070Y001473D01*
X007034Y001948D02*
X007826Y001948D01*
X008534Y001948D02*
X008826Y001948D01*
X008749Y001790D02*
X008611Y001790D01*
X008620Y001631D02*
X008740Y001631D01*
X008790Y001473D02*
X008570Y001473D01*
X008436Y001314D02*
X008924Y001314D01*
X009436Y001314D02*
X010248Y001314D01*
X010240Y001473D02*
X009570Y001473D01*
X009620Y001631D02*
X010240Y001631D01*
X010240Y001790D02*
X009611Y001790D01*
X009717Y001948D02*
X010240Y001948D01*
X010309Y002107D02*
X009875Y002107D01*
X010034Y002265D02*
X010996Y002265D01*
X011375Y002107D02*
X011560Y002107D01*
X011534Y002265D02*
X011996Y002265D01*
X011838Y002107D02*
X011800Y002107D01*
X012111Y001790D02*
X012249Y001790D01*
X012240Y001631D02*
X012120Y001631D01*
X012070Y001473D02*
X012290Y001473D01*
X012424Y001314D02*
X011936Y001314D01*
X011424Y001314D02*
X011112Y001314D01*
X011120Y001473D02*
X011290Y001473D01*
X011240Y001631D02*
X011120Y001631D01*
X011120Y001790D02*
X011249Y001790D01*
X011217Y001948D02*
X011326Y001948D01*
X011155Y002424D02*
X010192Y002424D01*
X010351Y002582D02*
X011313Y002582D01*
X011472Y002741D02*
X010509Y002741D01*
X010668Y002899D02*
X011630Y002899D01*
X011789Y003058D02*
X010826Y003058D01*
X010985Y003216D02*
X011947Y003216D01*
X012106Y003375D02*
X011143Y003375D01*
X011302Y003533D02*
X012264Y003533D01*
X012485Y003216D02*
X014197Y003216D01*
X014356Y003375D02*
X013643Y003375D01*
X013802Y003533D02*
X014514Y003533D01*
X014600Y003692D02*
X013960Y003692D01*
X013996Y003850D02*
X014552Y003850D01*
X014552Y004009D02*
X013996Y004009D01*
X013996Y004167D02*
X014552Y004167D01*
X014552Y004326D02*
X013996Y004326D01*
X013996Y004484D02*
X014552Y004484D01*
X014622Y004643D02*
X013996Y004643D01*
X014281Y004801D02*
X014686Y004801D01*
X014655Y004960D02*
X014281Y004960D01*
X014321Y005118D02*
X014729Y005118D01*
X015008Y005277D02*
X014321Y005277D01*
X014704Y005435D02*
X015115Y005435D01*
X015115Y005594D02*
X014862Y005594D01*
X014995Y005752D02*
X015115Y005752D01*
X015115Y005911D02*
X014995Y005911D01*
X014995Y006069D02*
X015115Y006069D01*
X015115Y006228D02*
X014995Y006228D01*
X014995Y006386D02*
X015115Y006386D01*
X015115Y006545D02*
X014995Y006545D01*
X014995Y006703D02*
X015115Y006703D01*
X015115Y006862D02*
X014995Y006862D01*
X014995Y007020D02*
X015115Y007020D01*
X015115Y007179D02*
X014995Y007179D01*
X014995Y007337D02*
X015115Y007337D01*
X015495Y007337D02*
X017435Y007337D01*
X017435Y007179D02*
X015495Y007179D01*
X015495Y007020D02*
X017446Y007020D01*
X017605Y006862D02*
X015495Y006862D01*
X015495Y006703D02*
X017763Y006703D01*
X017813Y006545D02*
X015495Y006545D01*
X015495Y006386D02*
X023450Y006386D01*
X023450Y006228D02*
X015495Y006228D01*
X015495Y006069D02*
X023450Y006069D01*
X023450Y005911D02*
X015495Y005911D01*
X015495Y005752D02*
X023450Y005752D01*
X023450Y005594D02*
X015495Y005594D01*
X015495Y005435D02*
X023450Y005435D01*
X023450Y005277D02*
X015495Y005277D01*
X015387Y005118D02*
X023450Y005118D01*
X023450Y004960D02*
X015228Y004960D01*
X015174Y004801D02*
X023450Y004801D01*
X023450Y004643D02*
X019740Y004643D01*
X019793Y004484D02*
X023450Y004484D01*
X023450Y004326D02*
X019793Y004326D01*
X019793Y004167D02*
X023450Y004167D01*
X023450Y004009D02*
X019793Y004009D01*
X019515Y004009D02*
X019515Y004009D01*
X019515Y004167D02*
X019515Y004167D01*
X019515Y004326D02*
X019515Y004326D01*
X019515Y004484D02*
X019515Y004484D01*
X019515Y004643D02*
X019515Y004643D01*
X019515Y003850D02*
X019515Y003850D01*
X019515Y003692D02*
X019515Y003692D01*
X019596Y003533D02*
X023450Y003533D01*
X023450Y003375D02*
X019754Y003375D01*
X019707Y003692D02*
X023450Y003692D01*
X023450Y003850D02*
X019793Y003850D01*
X021413Y003216D02*
X023450Y003216D01*
X023450Y003058D02*
X021571Y003058D01*
X021730Y002899D02*
X023450Y002899D01*
X023450Y002741D02*
X021888Y002741D01*
X022047Y002582D02*
X023450Y002582D01*
X023450Y002424D02*
X022205Y002424D01*
X021826Y002265D02*
X021364Y002265D01*
X021522Y002107D02*
X021560Y002107D01*
X021800Y002107D02*
X021985Y002107D01*
X022034Y001948D02*
X022143Y001948D01*
X021249Y001790D02*
X021111Y001790D01*
X021120Y001631D02*
X021240Y001631D01*
X021290Y001473D02*
X021070Y001473D01*
X020936Y001314D02*
X021424Y001314D01*
X020424Y001314D02*
X019936Y001314D01*
X020070Y001473D02*
X020290Y001473D01*
X020240Y001631D02*
X020120Y001631D01*
X020111Y001790D02*
X020249Y001790D01*
X020143Y001948D02*
X020034Y001948D01*
X020364Y002265D02*
X020826Y002265D01*
X020800Y002107D02*
X020985Y002107D01*
X021034Y001948D02*
X021143Y001948D01*
X020560Y002107D02*
X020522Y002107D01*
X020668Y002424D02*
X019705Y002424D01*
X019730Y002899D02*
X021192Y002899D01*
X021351Y002741D02*
X020888Y002741D01*
X021047Y002582D02*
X021509Y002582D01*
X021668Y002424D02*
X021205Y002424D01*
X019249Y001790D02*
X019111Y001790D01*
X019120Y001631D02*
X019240Y001631D01*
X019290Y001473D02*
X019070Y001473D01*
X018936Y001314D02*
X019424Y001314D01*
X018424Y001314D02*
X017936Y001314D01*
X018070Y001473D02*
X018290Y001473D01*
X018240Y001631D02*
X018120Y001631D01*
X018111Y001790D02*
X018249Y001790D01*
X018143Y001948D02*
X018034Y001948D01*
X017985Y002107D02*
X017800Y002107D01*
X017826Y002265D02*
X017364Y002265D01*
X017522Y002107D02*
X017560Y002107D01*
X017249Y001790D02*
X017111Y001790D01*
X017120Y001631D02*
X017240Y001631D01*
X017290Y001473D02*
X017070Y001473D01*
X016936Y001314D02*
X017424Y001314D01*
X016424Y001314D02*
X015936Y001314D01*
X016070Y001473D02*
X016290Y001473D01*
X016240Y001631D02*
X016120Y001631D01*
X016111Y001790D02*
X016249Y001790D01*
X016217Y001948D02*
X016326Y001948D01*
X016375Y002107D02*
X016490Y002107D01*
X016870Y002107D02*
X016985Y002107D01*
X017034Y001948D02*
X017143Y001948D01*
X017205Y002424D02*
X017668Y002424D01*
X017509Y002582D02*
X017185Y002582D01*
X017185Y002741D02*
X017351Y002741D01*
X017192Y002899D02*
X017185Y002899D01*
X017571Y003058D02*
X018065Y003058D01*
X018192Y002899D02*
X017730Y002899D01*
X017888Y002741D02*
X018351Y002741D01*
X018509Y002582D02*
X018047Y002582D01*
X018205Y002424D02*
X018668Y002424D01*
X018826Y002265D02*
X018364Y002265D01*
X018522Y002107D02*
X018560Y002107D01*
X018800Y002107D02*
X018985Y002107D01*
X019034Y001948D02*
X019143Y001948D01*
X018065Y003216D02*
X017500Y003216D01*
X017500Y003375D02*
X018065Y003375D01*
X018065Y003533D02*
X017500Y003533D01*
X017500Y003692D02*
X018065Y003692D01*
X016175Y003533D02*
X015925Y003533D01*
X015925Y003375D02*
X016175Y003375D01*
X016175Y003216D02*
X015925Y003216D01*
X015925Y003058D02*
X016175Y003058D01*
X016175Y002899D02*
X015925Y002899D01*
X015925Y002741D02*
X016175Y002741D01*
X016175Y002582D02*
X015851Y002582D01*
X015692Y002424D02*
X016155Y002424D01*
X015996Y002265D02*
X015534Y002265D01*
X015560Y002107D02*
X015375Y002107D01*
X015326Y001948D02*
X015217Y001948D01*
X015249Y001790D02*
X015111Y001790D01*
X015120Y001631D02*
X015240Y001631D01*
X015290Y001473D02*
X015070Y001473D01*
X014936Y001314D02*
X015424Y001314D01*
X014424Y001314D02*
X013936Y001314D01*
X014070Y001473D02*
X014290Y001473D01*
X014240Y001631D02*
X014120Y001631D01*
X013838Y002107D02*
X013800Y002107D01*
X013560Y002107D02*
X013375Y002107D01*
X013326Y001948D02*
X013217Y001948D01*
X013249Y001790D02*
X013111Y001790D01*
X013120Y001631D02*
X013240Y001631D01*
X013290Y001473D02*
X013070Y001473D01*
X012936Y001314D02*
X013424Y001314D01*
X012326Y001948D02*
X012217Y001948D01*
X012375Y002107D02*
X012560Y002107D01*
X012534Y002265D02*
X012996Y002265D01*
X012838Y002107D02*
X012800Y002107D01*
X012692Y002424D02*
X013155Y002424D01*
X013313Y002582D02*
X012851Y002582D01*
X012472Y002741D02*
X012009Y002741D01*
X012168Y002899D02*
X012630Y002899D01*
X012789Y003058D02*
X012326Y003058D01*
X012313Y002582D02*
X011851Y002582D01*
X011692Y002424D02*
X012155Y002424D01*
X010606Y003375D02*
X000910Y003375D01*
X000910Y003533D02*
X010764Y003533D01*
X010923Y003692D02*
X000910Y003692D01*
X000910Y003850D02*
X011081Y003850D01*
X011240Y004009D02*
X008647Y004009D01*
X008705Y004167D02*
X011398Y004167D01*
X011490Y004326D02*
X010948Y004326D01*
X010862Y004240D02*
X010498Y004240D01*
X010240Y004498D01*
X010240Y004862D01*
X010498Y005120D01*
X010862Y005120D01*
X011120Y004862D01*
X011120Y004498D01*
X010862Y004240D01*
X011106Y004484D02*
X011490Y004484D01*
X011490Y004643D02*
X011120Y004643D01*
X011120Y004801D02*
X011490Y004801D01*
X011870Y004801D02*
X011932Y004801D01*
X011905Y004643D02*
X011870Y004643D01*
X011870Y004484D02*
X011987Y004484D01*
X011870Y004326D02*
X013616Y004326D01*
X013616Y004484D02*
X012373Y004484D01*
X012455Y004643D02*
X013616Y004643D01*
X013331Y004801D02*
X012570Y004801D01*
X012728Y004960D02*
X013331Y004960D01*
X013291Y005118D02*
X012887Y005118D01*
X013045Y005277D02*
X013291Y005277D01*
X012825Y005594D02*
X012362Y005594D01*
X012204Y005435D02*
X012666Y005435D01*
X012508Y005277D02*
X012045Y005277D01*
X011887Y005118D02*
X012349Y005118D01*
X012191Y004960D02*
X011870Y004960D01*
X011490Y004960D02*
X011023Y004960D01*
X010864Y005118D02*
X011490Y005118D01*
X011508Y005277D02*
X010899Y005277D01*
X010862Y005240D02*
X011120Y005498D01*
X011120Y005862D01*
X010862Y006120D01*
X010498Y006120D01*
X010240Y005862D01*
X010240Y005498D01*
X010498Y005240D01*
X010862Y005240D01*
X011057Y005435D02*
X011666Y005435D01*
X011825Y005594D02*
X011120Y005594D01*
X011120Y005752D02*
X011983Y005752D01*
X012142Y005911D02*
X011072Y005911D01*
X010913Y006069D02*
X012397Y006069D01*
X012239Y006228D02*
X008616Y006228D01*
X008705Y006386D02*
X009352Y006386D01*
X009447Y006069D02*
X008435Y006069D01*
X008593Y005911D02*
X009288Y005911D01*
X009913Y006069D02*
X010447Y006069D01*
X010288Y005911D02*
X010072Y005911D01*
X010120Y005752D02*
X010240Y005752D01*
X010240Y005594D02*
X010120Y005594D01*
X010057Y005435D02*
X010303Y005435D01*
X010461Y005277D02*
X009899Y005277D01*
X009864Y005118D02*
X010496Y005118D01*
X010337Y004960D02*
X010023Y004960D01*
X010120Y004801D02*
X010240Y004801D01*
X010240Y004643D02*
X010120Y004643D01*
X010106Y004484D02*
X010254Y004484D01*
X010412Y004326D02*
X009948Y004326D01*
X009412Y004326D02*
X008667Y004326D01*
X009254Y004484D02*
X007270Y004484D01*
X006891Y004326D02*
X002194Y004326D01*
X002194Y004193D02*
X002194Y005018D01*
X002112Y005100D01*
X001248Y005100D01*
X001166Y005018D01*
X001166Y004193D01*
X001248Y004111D01*
X002112Y004111D01*
X002194Y004193D01*
X002168Y004167D02*
X007049Y004167D01*
X007208Y004009D02*
X000910Y004009D01*
X000910Y004167D02*
X001192Y004167D01*
X001166Y004326D02*
X000910Y004326D01*
X000910Y004484D02*
X001166Y004484D01*
X001166Y004643D02*
X000910Y004643D01*
X000910Y004801D02*
X001166Y004801D01*
X001166Y004960D02*
X000910Y004960D01*
X000910Y005118D02*
X004050Y005118D01*
X004050Y005130D02*
X004050Y004956D01*
X004062Y004911D01*
X004086Y004869D01*
X004119Y004836D01*
X004161Y004812D01*
X004206Y004800D01*
X004380Y004800D01*
X004554Y004800D01*
X004599Y004812D01*
X004641Y004836D01*
X004674Y004869D01*
X004698Y004911D01*
X004710Y004956D01*
X004710Y005130D01*
X004380Y005130D01*
X004380Y005130D01*
X004380Y004800D01*
X004380Y005130D01*
X004380Y005130D01*
X004380Y005130D01*
X004050Y005130D01*
X004050Y005277D02*
X000910Y005277D01*
X000910Y005435D02*
X002372Y005435D01*
X002268Y005594D02*
X000910Y005594D01*
X000910Y005752D02*
X002268Y005752D01*
X002308Y005911D02*
X000910Y005911D01*
X000910Y006069D02*
X002308Y006069D01*
X002308Y006228D02*
X000910Y006228D01*
X000910Y006386D02*
X002308Y006386D01*
X002308Y006545D02*
X000910Y006545D01*
X000910Y006703D02*
X002308Y006703D01*
X002351Y006862D02*
X000910Y006862D01*
X000910Y007020D02*
X003251Y007020D01*
X003410Y007179D02*
X000910Y007179D01*
X000910Y007337D02*
X001171Y007337D01*
X001166Y007342D02*
X001248Y007260D01*
X002112Y007260D01*
X002194Y007342D01*
X002194Y008167D01*
X002112Y008249D01*
X001248Y008249D01*
X001166Y008167D01*
X001166Y007342D01*
X001166Y007496D02*
X000910Y007496D01*
X000910Y007654D02*
X001166Y007654D01*
X001166Y007813D02*
X000910Y007813D01*
X000910Y007971D02*
X001166Y007971D01*
X001166Y008130D02*
X000910Y008130D01*
X000910Y008288D02*
X003615Y008288D01*
X003615Y008447D02*
X000910Y008447D01*
X000910Y008605D02*
X003615Y008605D01*
X003995Y008605D02*
X004050Y008605D01*
X004050Y008654D02*
X004050Y008480D01*
X004380Y008480D01*
X004380Y008480D01*
X004380Y008810D01*
X004554Y008810D01*
X004599Y008798D01*
X004641Y008774D01*
X004674Y008741D01*
X004698Y008699D01*
X004710Y008654D01*
X004710Y008480D01*
X004380Y008480D01*
X004380Y008480D01*
X004380Y008480D01*
X004380Y008810D01*
X004206Y008810D01*
X004161Y008798D01*
X004119Y008774D01*
X004086Y008741D01*
X004062Y008699D01*
X004050Y008654D01*
X003995Y008726D02*
X004259Y008990D01*
X005090Y008990D01*
X005090Y008972D01*
X005172Y008890D01*
X005190Y008890D01*
X005190Y008845D01*
X005172Y008845D01*
X005090Y008763D01*
X005090Y008409D01*
X005086Y008413D01*
X004985Y008455D01*
X004875Y008455D01*
X004774Y008413D01*
X004710Y008349D01*
X004710Y008480D01*
X004380Y008480D01*
X004050Y008480D01*
X004050Y008306D01*
X004062Y008261D01*
X004086Y008219D01*
X004119Y008186D01*
X004161Y008162D01*
X004163Y008161D01*
X004090Y008088D01*
X004090Y007672D01*
X004172Y007590D01*
X004190Y007590D01*
X004190Y007470D01*
X004172Y007470D01*
X004090Y007388D01*
X004090Y007370D01*
X004039Y007370D01*
X003995Y007326D01*
X003995Y008726D01*
X004032Y008764D02*
X004109Y008764D01*
X004191Y008922D02*
X005140Y008922D01*
X005091Y008764D02*
X004651Y008764D01*
X004710Y008605D02*
X005090Y008605D01*
X005090Y008447D02*
X005005Y008447D01*
X004855Y008447D02*
X004710Y008447D01*
X004380Y008605D02*
X004380Y008605D01*
X004380Y008764D02*
X004380Y008764D01*
X004050Y008447D02*
X003995Y008447D01*
X003995Y008288D02*
X004055Y008288D01*
X003995Y008130D02*
X004132Y008130D01*
X004090Y007971D02*
X003995Y007971D01*
X003995Y007813D02*
X004090Y007813D01*
X004108Y007654D02*
X003995Y007654D01*
X003995Y007496D02*
X004190Y007496D01*
X004570Y007496D02*
X006016Y007496D01*
X006016Y007654D02*
X004652Y007654D01*
X004670Y007813D02*
X005029Y007813D01*
X004750Y007971D02*
X004670Y007971D01*
X004655Y008130D02*
X004628Y008130D01*
X003615Y008130D02*
X002194Y008130D01*
X002194Y007971D02*
X003615Y007971D01*
X003615Y007813D02*
X002194Y007813D01*
X002194Y007654D02*
X003615Y007654D01*
X003615Y007496D02*
X002194Y007496D01*
X002189Y007337D02*
X003568Y007337D01*
X003995Y007337D02*
X004006Y007337D01*
X004068Y006862D02*
X005615Y006862D01*
X005586Y006947D02*
X005663Y007024D01*
X005705Y007125D01*
X005705Y007235D01*
X005663Y007336D01*
X005586Y007413D01*
X005485Y007455D01*
X005375Y007455D01*
X005274Y007413D01*
X005260Y007398D01*
X005188Y007470D01*
X004772Y007470D01*
X004690Y007388D01*
X004690Y006972D01*
X004772Y006890D01*
X005188Y006890D01*
X005260Y006962D01*
X005274Y006947D01*
X005375Y006905D01*
X005485Y006905D01*
X005586Y006947D01*
X005659Y007020D02*
X005751Y007020D01*
X005705Y007179D02*
X005910Y007179D01*
X006056Y007337D02*
X005662Y007337D01*
X006412Y007654D02*
X006412Y007654D01*
X006412Y007813D02*
X006412Y007813D01*
X006552Y007971D02*
X006587Y007971D01*
X006332Y008288D02*
X006268Y008288D01*
X006310Y008447D02*
X006490Y008447D01*
X006649Y008605D02*
X006310Y008605D01*
X006301Y008764D02*
X006703Y008764D01*
X006544Y008922D02*
X006220Y008922D01*
X005980Y008764D02*
X005980Y008764D01*
X005980Y008605D02*
X005980Y008605D01*
X005980Y008555D02*
X005980Y008225D01*
X005980Y008555D01*
X005980Y008555D01*
X005980Y008447D02*
X005980Y008447D01*
X005980Y008288D02*
X005980Y008288D01*
X005692Y008288D02*
X005611Y008288D01*
X005620Y008922D02*
X005740Y008922D01*
X005690Y009081D02*
X005670Y009081D01*
X005670Y009239D02*
X005690Y009239D01*
X005700Y009398D02*
X005660Y009398D01*
X006260Y009398D02*
X006504Y009398D01*
X006662Y009556D02*
X004926Y009556D01*
X004913Y009524D02*
X004955Y009625D01*
X004955Y009735D01*
X004913Y009836D01*
X004836Y009913D01*
X004735Y009955D01*
X004625Y009955D01*
X004524Y009913D01*
X004481Y009870D01*
X002520Y009870D01*
X002520Y009888D01*
X002438Y009970D01*
X002022Y009970D01*
X001940Y009888D01*
X001940Y009472D01*
X002022Y009390D01*
X002438Y009390D01*
X002520Y009472D01*
X002520Y009490D01*
X004481Y009490D01*
X004524Y009447D01*
X004625Y009405D01*
X004735Y009405D01*
X004836Y009447D01*
X004913Y009524D01*
X004955Y009715D02*
X006821Y009715D01*
X007190Y009873D02*
X004876Y009873D01*
X004484Y009873D02*
X002520Y009873D01*
X002438Y010140D02*
X002022Y010140D01*
X001940Y010222D01*
X001940Y010638D01*
X002022Y010720D01*
X002438Y010720D01*
X002520Y010638D01*
X002520Y010620D01*
X006481Y010620D01*
X006524Y010663D01*
X006625Y010705D01*
X006735Y010705D01*
X006836Y010663D01*
X006913Y010586D01*
X006955Y010485D01*
X006955Y010375D01*
X006913Y010274D01*
X006836Y010197D01*
X006735Y010155D01*
X006625Y010155D01*
X006524Y010197D01*
X006481Y010240D01*
X002520Y010240D01*
X002520Y010222D01*
X002438Y010140D01*
X002488Y010190D02*
X006541Y010190D01*
X006819Y010190D02*
X007090Y010190D01*
X007093Y010032D02*
X000910Y010032D01*
X000910Y010190D02*
X001372Y010190D01*
X001340Y010222D02*
X001422Y010140D01*
X001838Y010140D01*
X001920Y010222D01*
X001920Y010638D01*
X001838Y010720D01*
X001820Y010720D01*
X001820Y010890D01*
X001838Y010890D01*
X001920Y010972D01*
X001920Y011388D01*
X001838Y011470D01*
X001422Y011470D01*
X001340Y011388D01*
X001340Y010972D01*
X001422Y010890D01*
X001440Y010890D01*
X001440Y010720D01*
X001422Y010720D01*
X001340Y010638D01*
X001340Y010222D01*
X001340Y010349D02*
X000910Y010349D01*
X000910Y010507D02*
X001340Y010507D01*
X001368Y010666D02*
X000910Y010666D01*
X000910Y010824D02*
X001440Y010824D01*
X001340Y010983D02*
X000910Y010983D01*
X000910Y011141D02*
X001340Y011141D01*
X001340Y011300D02*
X000918Y011300D01*
X000951Y011458D02*
X001410Y011458D01*
X000993Y011617D02*
X010240Y011617D01*
X010240Y011458D02*
X002450Y011458D01*
X002438Y011470D02*
X002022Y011470D01*
X001940Y011388D01*
X001940Y010972D01*
X002022Y010890D01*
X002438Y010890D01*
X002520Y010972D01*
X002520Y010990D01*
X003294Y010990D01*
X003337Y010947D01*
X003438Y010905D01*
X003547Y010905D01*
X003648Y010947D01*
X003726Y011024D01*
X003767Y011125D01*
X003767Y011235D01*
X003726Y011336D01*
X003648Y011413D01*
X003547Y011455D01*
X003438Y011455D01*
X003337Y011413D01*
X003294Y011370D01*
X002520Y011370D01*
X002520Y011388D01*
X002438Y011470D01*
X002010Y011458D02*
X001850Y011458D01*
X001920Y011300D02*
X001940Y011300D01*
X001940Y011141D02*
X001920Y011141D01*
X001920Y010983D02*
X001940Y010983D01*
X001820Y010824D02*
X011115Y010824D01*
X011109Y010983D02*
X003684Y010983D01*
X003767Y011141D02*
X010950Y011141D01*
X011171Y011458D02*
X011296Y011458D01*
X011329Y011300D02*
X011449Y011300D01*
X011488Y011141D02*
X011490Y011141D01*
X011870Y011141D02*
X011872Y011141D01*
X011911Y011300D02*
X012031Y011300D01*
X012064Y011458D02*
X012189Y011458D01*
X012240Y011617D02*
X012120Y011617D01*
X012117Y011775D02*
X012243Y011775D01*
X012311Y011934D02*
X012049Y011934D01*
X011835Y012092D02*
X012525Y012092D01*
X012835Y012092D02*
X013525Y012092D01*
X013311Y011934D02*
X013049Y011934D01*
X013117Y011775D02*
X013243Y011775D01*
X013240Y011617D02*
X013120Y011617D01*
X013064Y011458D02*
X013189Y011458D01*
X013031Y011300D02*
X012911Y011300D01*
X012872Y011141D02*
X012410Y011141D01*
X012251Y010983D02*
X012714Y010983D01*
X012555Y010824D02*
X012245Y010824D01*
X012245Y010666D02*
X012397Y010666D01*
X012620Y010349D02*
X013080Y010349D01*
X013238Y010507D02*
X012776Y010507D01*
X012934Y010666D02*
X013397Y010666D01*
X013555Y010824D02*
X013093Y010824D01*
X013251Y010983D02*
X013714Y010983D01*
X013872Y011141D02*
X013410Y011141D01*
X013911Y011300D02*
X014031Y011300D01*
X014064Y011458D02*
X014189Y011458D01*
X014240Y011617D02*
X014120Y011617D01*
X014117Y011775D02*
X014243Y011775D01*
X014311Y011934D02*
X014049Y011934D01*
X013835Y012092D02*
X014525Y012092D01*
X014835Y012092D02*
X015525Y012092D01*
X015311Y011934D02*
X015049Y011934D01*
X015117Y011775D02*
X015243Y011775D01*
X015240Y011617D02*
X015120Y011617D01*
X015064Y011458D02*
X015189Y011458D01*
X015031Y011300D02*
X014911Y011300D01*
X014872Y011141D02*
X014410Y011141D01*
X014251Y010983D02*
X014714Y010983D01*
X014555Y010824D02*
X014093Y010824D01*
X013934Y010666D02*
X014397Y010666D01*
X014238Y010507D02*
X013776Y010507D01*
X013617Y010349D02*
X014080Y010349D01*
X013921Y010190D02*
X013459Y010190D01*
X013300Y010032D02*
X013763Y010032D01*
X013604Y009873D02*
X013142Y009873D01*
X012995Y009715D02*
X013446Y009715D01*
X013287Y009556D02*
X012995Y009556D01*
X012995Y009398D02*
X013129Y009398D01*
X013508Y009239D02*
X014045Y009239D01*
X013968Y009398D02*
X013666Y009398D01*
X013825Y009556D02*
X013997Y009556D01*
X013983Y009715D02*
X014600Y009715D01*
X014604Y009873D02*
X014142Y009873D01*
X014300Y010032D02*
X014763Y010032D01*
X014921Y010190D02*
X014459Y010190D01*
X014617Y010349D02*
X015080Y010349D01*
X015238Y010507D02*
X014776Y010507D01*
X014934Y010666D02*
X015397Y010666D01*
X015555Y010824D02*
X015093Y010824D01*
X015251Y010983D02*
X015714Y010983D01*
X015872Y011141D02*
X015410Y011141D01*
X015911Y011300D02*
X016031Y011300D01*
X016064Y011458D02*
X016189Y011458D01*
X016240Y011617D02*
X016120Y011617D01*
X016117Y011775D02*
X016243Y011775D01*
X016311Y011934D02*
X016049Y011934D01*
X015835Y012092D02*
X016525Y012092D01*
X016835Y012092D02*
X017525Y012092D01*
X017311Y011934D02*
X017049Y011934D01*
X017117Y011775D02*
X017243Y011775D01*
X017240Y011617D02*
X017120Y011617D01*
X017064Y011458D02*
X017189Y011458D01*
X017031Y011300D02*
X016911Y011300D01*
X016872Y011141D02*
X016410Y011141D01*
X016251Y010983D02*
X016714Y010983D01*
X017093Y010824D02*
X018555Y010824D01*
X018714Y010983D02*
X017251Y010983D01*
X017410Y011141D02*
X018872Y011141D01*
X019031Y011300D02*
X017911Y011300D01*
X018064Y011458D02*
X019189Y011458D01*
X019240Y011617D02*
X018120Y011617D01*
X018117Y011775D02*
X019240Y011775D01*
X019240Y011934D02*
X018049Y011934D01*
X017835Y012092D02*
X019294Y012092D01*
X020066Y012092D02*
X020525Y012092D01*
X020311Y011934D02*
X020120Y011934D01*
X020120Y011775D02*
X020243Y011775D01*
X020240Y011617D02*
X020120Y011617D01*
X020120Y011458D02*
X020189Y011458D01*
X020533Y011265D02*
X019009Y009740D01*
X017634Y009740D01*
X017500Y009606D01*
X017500Y009576D01*
X017781Y009576D01*
X017782Y009575D01*
X017783Y009576D01*
X018096Y009576D01*
X018097Y009575D01*
X018098Y009576D01*
X018411Y009576D01*
X018412Y009575D01*
X018413Y009576D01*
X018672Y009576D01*
X018676Y009580D01*
X018717Y009604D01*
X018763Y009616D01*
X018885Y009616D01*
X018885Y009101D01*
X018885Y008587D01*
X018885Y009101D01*
X018885Y009101D01*
X018885Y009101D01*
X018885Y009616D01*
X019007Y009616D01*
X019053Y009604D01*
X019094Y009580D01*
X019098Y009576D01*
X019302Y009576D01*
X019306Y009580D01*
X019347Y009604D01*
X019393Y009616D01*
X019515Y009616D01*
X019515Y009101D01*
X019515Y009101D01*
X019515Y009081D02*
X019515Y009081D01*
X019515Y008922D02*
X019515Y008922D01*
X019515Y008764D02*
X019515Y008764D01*
X019515Y008605D02*
X019515Y008605D01*
X019693Y008605D02*
X023450Y008605D01*
X023450Y008447D02*
X019005Y008447D01*
X019063Y008605D02*
X019336Y008605D01*
X019183Y008288D02*
X023450Y008288D01*
X023450Y008130D02*
X019205Y008130D01*
X019110Y007971D02*
X023450Y007971D01*
X023450Y007813D02*
X018923Y007813D01*
X018955Y007654D02*
X023450Y007654D01*
X023450Y007496D02*
X018884Y007496D01*
X018537Y007337D02*
X023450Y007337D01*
X023450Y007179D02*
X018580Y007179D01*
X018534Y007020D02*
X023450Y007020D01*
X023450Y006862D02*
X018262Y006862D01*
X018330Y006703D02*
X023450Y006703D01*
X023450Y006545D02*
X018297Y006545D01*
X018076Y007020D02*
X017984Y007020D01*
X018030Y007179D02*
X017825Y007179D01*
X017815Y007337D02*
X017879Y007337D01*
X018258Y007496D02*
X018476Y007496D01*
X018405Y007654D02*
X018130Y007654D01*
X018130Y007813D02*
X018279Y007813D01*
X018658Y007971D02*
X018750Y007971D01*
X018655Y008130D02*
X018499Y008130D01*
X018445Y008288D02*
X018553Y008288D01*
X018885Y008605D02*
X018885Y008605D01*
X018885Y008764D02*
X018885Y008764D01*
X018885Y008922D02*
X018885Y008922D01*
X018885Y009081D02*
X018885Y009081D01*
X018885Y009239D02*
X018885Y009239D01*
X018885Y009398D02*
X018885Y009398D01*
X018885Y009556D02*
X018885Y009556D01*
X019142Y009873D02*
X023450Y009873D01*
X023450Y009715D02*
X017608Y009715D01*
X017365Y010009D02*
X017120Y009764D01*
X017120Y009615D01*
X017117Y009616D01*
X016995Y009616D01*
X016995Y009101D01*
X016995Y008587D01*
X016995Y009101D01*
X016995Y009101D01*
X016995Y009101D01*
X016995Y009616D01*
X016873Y009616D01*
X016827Y009604D01*
X016786Y009580D01*
X016782Y009576D01*
X016524Y009576D01*
X016523Y009575D01*
X016521Y009576D01*
X016209Y009576D01*
X016208Y009575D01*
X016206Y009576D01*
X015925Y009576D01*
X015925Y009656D01*
X016384Y010115D01*
X017471Y010115D01*
X017365Y010009D01*
X017388Y010032D02*
X016300Y010032D01*
X016142Y009873D02*
X017229Y009873D01*
X017120Y009715D02*
X015983Y009715D01*
X015230Y009715D02*
X014983Y009715D01*
X014980Y009712D02*
X015230Y009961D01*
X015230Y009615D01*
X015227Y009616D01*
X015105Y009616D01*
X014983Y009616D01*
X014980Y009615D01*
X014980Y009712D01*
X015105Y009616D02*
X015105Y009101D01*
X015105Y009101D01*
X015105Y009616D01*
X015105Y009556D02*
X015105Y009556D01*
X015105Y009398D02*
X015105Y009398D01*
X015105Y009239D02*
X015105Y009239D01*
X015105Y009081D02*
X015105Y009081D01*
X015105Y008922D02*
X015105Y008922D01*
X015105Y008764D02*
X015105Y008764D01*
X015105Y008605D02*
X015105Y008605D01*
X014927Y008605D02*
X014774Y008605D01*
X014932Y008447D02*
X015303Y008447D01*
X015226Y008370D02*
X015226Y008370D01*
X015144Y008288D02*
X014995Y008288D01*
X014995Y008130D02*
X015115Y008130D01*
X015115Y007971D02*
X014995Y007971D01*
X014995Y007813D02*
X015115Y007813D01*
X015115Y007654D02*
X014995Y007654D01*
X014995Y007496D02*
X015115Y007496D01*
X015495Y007496D02*
X017435Y007496D01*
X017435Y007654D02*
X015495Y007654D01*
X015495Y007813D02*
X017435Y007813D01*
X017435Y007971D02*
X015495Y007971D01*
X015523Y008130D02*
X017435Y008130D01*
X017435Y008288D02*
X015994Y008288D01*
X016153Y008447D02*
X017435Y008447D01*
X017435Y008605D02*
X017173Y008605D01*
X016995Y008605D02*
X016995Y008605D01*
X016995Y008764D02*
X016995Y008764D01*
X016995Y008922D02*
X016995Y008922D01*
X016995Y009081D02*
X016995Y009081D01*
X016995Y009239D02*
X016995Y009239D01*
X016995Y009398D02*
X016995Y009398D01*
X016995Y009556D02*
X016995Y009556D01*
X016816Y008605D02*
X016240Y008605D01*
X015461Y008605D02*
X015284Y008605D01*
X014615Y008226D02*
X014615Y005884D01*
X014460Y005728D01*
X014281Y005728D01*
X014281Y006010D01*
X014280Y006011D01*
X014281Y006012D01*
X014281Y006325D01*
X014280Y006326D01*
X014281Y006327D01*
X014281Y006640D01*
X014280Y006641D01*
X014281Y006642D01*
X014281Y006955D01*
X014280Y006956D01*
X014281Y006957D01*
X014281Y007269D01*
X014280Y007271D01*
X014281Y007272D01*
X014281Y007530D01*
X014285Y007534D01*
X014308Y007575D01*
X014321Y007621D01*
X014321Y007743D01*
X014321Y007865D01*
X014308Y007911D01*
X014285Y007952D01*
X014281Y007956D01*
X014281Y008160D01*
X014285Y008164D01*
X014308Y008205D01*
X014321Y008251D01*
X014321Y008373D01*
X014321Y008495D01*
X014311Y008530D01*
X014414Y008428D01*
X014615Y008226D01*
X014553Y008288D02*
X014321Y008288D01*
X014321Y008373D02*
X013806Y008373D01*
X013806Y008373D01*
X013806Y008651D01*
X013806Y008373D01*
X014321Y008373D01*
X014321Y008447D02*
X014395Y008447D01*
X014303Y008605D02*
X014262Y008605D01*
X014303Y008764D02*
X013370Y008764D01*
X013370Y008922D02*
X014303Y008922D01*
X014303Y009081D02*
X013370Y009081D01*
X013806Y008605D02*
X013806Y008605D01*
X013806Y008447D02*
X013806Y008447D01*
X013806Y008373D02*
X013806Y008373D01*
X014281Y008130D02*
X014615Y008130D01*
X014615Y007971D02*
X014281Y007971D01*
X014321Y007813D02*
X014615Y007813D01*
X014615Y007654D02*
X014321Y007654D01*
X014321Y007743D02*
X013806Y007743D01*
X014321Y007743D01*
X014281Y007496D02*
X014615Y007496D01*
X014615Y007337D02*
X014281Y007337D01*
X014281Y007179D02*
X014615Y007179D01*
X014615Y007020D02*
X014281Y007020D01*
X014281Y006862D02*
X014615Y006862D01*
X014615Y006703D02*
X014281Y006703D01*
X014281Y006545D02*
X014615Y006545D01*
X014615Y006386D02*
X014281Y006386D01*
X014281Y006228D02*
X014615Y006228D01*
X014615Y006069D02*
X014281Y006069D01*
X014281Y005911D02*
X014615Y005911D01*
X014483Y005752D02*
X014281Y005752D01*
X016050Y004643D02*
X016050Y004643D01*
X016050Y004484D02*
X016050Y004484D01*
X016050Y004326D02*
X016050Y004326D01*
X016050Y004167D02*
X016050Y004167D01*
X016050Y004009D02*
X016050Y004009D01*
X016050Y003850D02*
X016050Y003850D01*
X016050Y003692D02*
X016050Y003692D01*
X013616Y004009D02*
X011777Y004009D01*
X011870Y004167D02*
X013616Y004167D01*
X013581Y003850D02*
X011619Y003850D01*
X011460Y003692D02*
X013423Y003692D01*
X015800Y002107D02*
X015838Y002107D01*
X010447Y003216D02*
X000910Y003216D01*
X000910Y003058D02*
X010289Y003058D01*
X010130Y002899D02*
X000910Y002899D01*
X000910Y002741D02*
X009972Y002741D01*
X009813Y002582D02*
X000910Y002582D01*
X000910Y002424D02*
X009655Y002424D01*
X006732Y004484D02*
X002194Y004484D01*
X002194Y004643D02*
X006574Y004643D01*
X006415Y004801D02*
X004557Y004801D01*
X004380Y004801D02*
X004380Y004801D01*
X004203Y004801D02*
X002194Y004801D01*
X002194Y004960D02*
X004050Y004960D01*
X004380Y004960D02*
X004380Y004960D01*
X004380Y005118D02*
X004380Y005118D01*
X004710Y005118D02*
X006098Y005118D01*
X005940Y005277D02*
X004710Y005277D01*
X004622Y005435D02*
X005781Y005435D01*
X005623Y005594D02*
X004670Y005594D01*
X004670Y005752D02*
X005615Y005752D01*
X005615Y005911D02*
X004670Y005911D01*
X004570Y006069D02*
X005615Y006069D01*
X004690Y006228D02*
X004670Y006228D01*
X004670Y006386D02*
X004690Y006386D01*
X004690Y006545D02*
X004670Y006545D01*
X004605Y006703D02*
X004755Y006703D01*
X004690Y007020D02*
X004670Y007020D01*
X004670Y007179D02*
X004690Y007179D01*
X004690Y007337D02*
X004670Y007337D01*
X004155Y006703D02*
X003909Y006703D01*
X003776Y006545D02*
X003751Y006545D01*
X003617Y006386D02*
X003592Y006386D01*
X003838Y006069D02*
X004190Y006069D01*
X004090Y005911D02*
X003139Y005911D01*
X003179Y005752D02*
X004090Y005752D01*
X004090Y005594D02*
X003179Y005594D01*
X003074Y005435D02*
X004138Y005435D01*
X004710Y004960D02*
X006257Y004960D01*
X007136Y005118D02*
X007598Y005118D01*
X007440Y005277D02*
X007289Y005277D01*
X007294Y004960D02*
X008762Y004960D01*
X009098Y004960D02*
X009337Y004960D01*
X009202Y005118D02*
X009496Y005118D01*
X009461Y005277D02*
X009188Y005277D01*
X009303Y005435D02*
X009033Y005435D01*
X008827Y005435D02*
X007819Y005435D01*
X007660Y005594D02*
X008373Y005594D01*
X008214Y005752D02*
X007502Y005752D01*
X007680Y005680D02*
X007308Y006052D01*
X007308Y006069D02*
X007308Y006069D01*
X007308Y006016D02*
X007308Y006412D01*
X007308Y006412D01*
X007308Y006016D01*
X007343Y005911D02*
X008056Y005911D01*
X007897Y006069D02*
X007704Y006069D01*
X007308Y006228D02*
X007308Y006228D01*
X007308Y006386D02*
X007308Y006386D01*
X005615Y006703D02*
X005490Y006703D01*
X005370Y006703D02*
X005205Y006703D01*
X004090Y006228D02*
X003996Y006228D01*
X002723Y005594D02*
X002723Y005594D01*
X002723Y005435D02*
X002723Y005435D01*
X001838Y008640D02*
X001422Y008640D01*
X001340Y008722D01*
X001340Y009138D01*
X001422Y009220D01*
X001440Y009220D01*
X001440Y009390D01*
X001422Y009390D01*
X001340Y009472D01*
X001340Y009888D01*
X001422Y009970D01*
X001838Y009970D01*
X001920Y009888D01*
X001920Y009472D01*
X001838Y009390D01*
X001820Y009390D01*
X001820Y009220D01*
X001838Y009220D01*
X001920Y009138D01*
X001920Y008722D01*
X001838Y008640D01*
X001920Y008764D02*
X001940Y008764D01*
X001940Y008922D02*
X001920Y008922D01*
X001920Y009081D02*
X001940Y009081D01*
X001820Y009239D02*
X003970Y009239D01*
X003812Y009081D02*
X003728Y009081D01*
X002446Y009398D02*
X005100Y009398D01*
X006883Y009239D02*
X007757Y009239D01*
X007980Y009239D02*
X007980Y009239D01*
X007980Y009225D02*
X007980Y009555D01*
X007980Y009555D01*
X007980Y009225D01*
X007980Y009398D02*
X007980Y009398D01*
X007980Y009556D02*
X007980Y009556D01*
X007980Y009715D02*
X007980Y009715D01*
X007980Y009873D02*
X007980Y009873D01*
X007762Y009873D02*
X007570Y009873D01*
X007980Y010032D02*
X007980Y010032D01*
X007980Y010190D02*
X007980Y010190D01*
X007980Y010243D02*
X008310Y010243D01*
X008310Y010416D01*
X008298Y010462D01*
X008274Y010503D01*
X008241Y010537D01*
X008199Y010560D01*
X008154Y010572D01*
X007980Y010572D01*
X007980Y010243D01*
X007980Y010243D01*
X007980Y010349D02*
X007980Y010349D01*
X007980Y010507D02*
X007980Y010507D01*
X008270Y010507D02*
X009402Y010507D01*
X009350Y010349D02*
X008310Y010349D01*
X008310Y010190D02*
X009350Y010190D01*
X009357Y010032D02*
X008300Y010032D01*
X008198Y009873D02*
X009425Y009873D01*
X009390Y009715D02*
X008310Y009715D01*
X008310Y009556D02*
X009390Y009556D01*
X009414Y009398D02*
X008310Y009398D01*
X008203Y009239D02*
X009490Y009239D01*
X009458Y009081D02*
X009048Y009081D01*
X009207Y008922D02*
X009300Y008922D01*
X008986Y008605D02*
X008892Y008605D01*
X009043Y008447D02*
X009291Y008447D01*
X009216Y008288D02*
X009450Y008288D01*
X009245Y008130D02*
X011115Y008130D01*
X011115Y007971D02*
X011011Y007971D01*
X010910Y008288D02*
X011115Y008288D01*
X011115Y008447D02*
X011069Y008447D01*
X011060Y008922D02*
X011115Y008922D01*
X011115Y009081D02*
X010902Y009081D01*
X010870Y009239D02*
X011115Y009239D01*
X011115Y009398D02*
X010946Y009398D01*
X010970Y009556D02*
X011115Y009556D01*
X011115Y009715D02*
X010970Y009715D01*
X010935Y009873D02*
X011115Y009873D01*
X011115Y010032D02*
X011003Y010032D01*
X011010Y010190D02*
X011115Y010190D01*
X011115Y010349D02*
X011010Y010349D01*
X010958Y010507D02*
X011115Y010507D01*
X011115Y010666D02*
X006830Y010666D01*
X006946Y010507D02*
X007147Y010507D01*
X007090Y010349D02*
X006944Y010349D01*
X006530Y010666D02*
X002492Y010666D01*
X001968Y010666D02*
X001892Y010666D01*
X001920Y010507D02*
X001940Y010507D01*
X001940Y010349D02*
X001920Y010349D01*
X001888Y010190D02*
X001972Y010190D01*
X001940Y009873D02*
X001920Y009873D01*
X001920Y009715D02*
X001940Y009715D01*
X001940Y009556D02*
X001920Y009556D01*
X001846Y009398D02*
X002014Y009398D01*
X001440Y009239D02*
X000910Y009239D01*
X000910Y009398D02*
X001414Y009398D01*
X001340Y009556D02*
X000910Y009556D01*
X000910Y009715D02*
X001340Y009715D01*
X001340Y009873D02*
X000910Y009873D01*
X000910Y009081D02*
X001340Y009081D01*
X001340Y008922D02*
X000910Y008922D01*
X000910Y008764D02*
X001340Y008764D01*
X002520Y010983D02*
X003301Y010983D01*
X003741Y011300D02*
X010262Y011300D01*
X011120Y011617D02*
X011240Y011617D01*
X011243Y011775D02*
X011120Y011775D01*
X011120Y011934D02*
X011311Y011934D01*
X011525Y012092D02*
X011066Y012092D01*
X010294Y012092D02*
X001311Y012092D01*
X001161Y011934D02*
X010240Y011934D01*
X010240Y011775D02*
X001070Y011775D01*
X001516Y012251D02*
X022844Y012251D01*
X022929Y012092D02*
X023049Y012092D01*
X023089Y011934D02*
X023199Y011934D01*
X023151Y011775D02*
X023290Y011775D01*
X023367Y011617D02*
X023156Y011617D01*
X023106Y011458D02*
X023409Y011458D01*
X023450Y010983D02*
X020251Y010983D01*
X020093Y010824D02*
X023450Y010824D01*
X023450Y010666D02*
X019934Y010666D01*
X019776Y010507D02*
X023450Y010507D01*
X023450Y010349D02*
X019617Y010349D01*
X019459Y010190D02*
X023450Y010190D01*
X023450Y010032D02*
X019300Y010032D01*
X019515Y009556D02*
X019515Y009556D01*
X019515Y009398D02*
X019515Y009398D01*
X019515Y009239D02*
X019515Y009239D01*
X019793Y009239D02*
X023450Y009239D01*
X023450Y009398D02*
X019793Y009398D01*
X019748Y009556D02*
X023450Y009556D01*
X023450Y009081D02*
X019793Y009081D01*
X019793Y008922D02*
X023450Y008922D01*
X023450Y008764D02*
X019793Y008764D01*
X018238Y010507D02*
X016776Y010507D01*
X016934Y010666D02*
X018397Y010666D01*
X020911Y011300D02*
X021449Y011300D01*
X021431Y011307D02*
X021592Y011240D01*
X021768Y011240D01*
X021929Y011307D01*
X022053Y011431D01*
X022120Y011592D01*
X022120Y011768D01*
X022053Y011929D01*
X021929Y012053D01*
X021768Y012120D01*
X021592Y012120D01*
X021431Y012053D01*
X021307Y011929D01*
X021240Y011768D01*
X021240Y011592D01*
X021307Y011431D01*
X021431Y011307D01*
X021296Y011458D02*
X021064Y011458D01*
X021120Y011617D02*
X021240Y011617D01*
X021243Y011775D02*
X021117Y011775D01*
X021049Y011934D02*
X021311Y011934D01*
X021525Y012092D02*
X020835Y012092D01*
X021835Y012092D02*
X022431Y012092D01*
X022271Y011934D02*
X022049Y011934D01*
X022117Y011775D02*
X022209Y011775D01*
X022204Y011617D02*
X022120Y011617D01*
X022064Y011458D02*
X022254Y011458D01*
X022387Y011300D02*
X021911Y011300D01*
X022660Y011775D02*
X022700Y011775D01*
X022700Y011934D02*
X022660Y011934D01*
X022660Y012092D02*
X022700Y012092D01*
X022458Y012409D02*
X001902Y012409D01*
X007613Y010507D02*
X007690Y010507D01*
X009680Y010507D02*
X009680Y010507D01*
X009680Y010349D02*
X009680Y010349D01*
X009958Y010507D02*
X010402Y010507D01*
X010350Y010349D02*
X010010Y010349D01*
X010010Y010190D02*
X010350Y010190D01*
X010357Y010032D02*
X010003Y010032D01*
X009935Y009873D02*
X010425Y009873D01*
X010390Y009715D02*
X009970Y009715D01*
X009970Y009556D02*
X010390Y009556D01*
X010414Y009398D02*
X009946Y009398D01*
X009870Y009239D02*
X010490Y009239D01*
X010458Y009081D02*
X009902Y009081D01*
X010060Y008922D02*
X010300Y008922D01*
X010240Y008764D02*
X010120Y008764D01*
X010120Y008605D02*
X010240Y008605D01*
X010291Y008447D02*
X010069Y008447D01*
X009910Y008288D02*
X010450Y008288D01*
X010349Y007971D02*
X010011Y007971D01*
X010120Y007813D02*
X010240Y007813D01*
X010240Y007654D02*
X010120Y007654D01*
X010118Y007496D02*
X010242Y007496D01*
X010959Y007337D02*
X011129Y007337D01*
X011288Y007179D02*
X010455Y007179D01*
X010240Y006862D02*
X010120Y006862D01*
X010120Y006703D02*
X010240Y006703D01*
X010240Y006545D02*
X010120Y006545D01*
X010008Y006386D02*
X010352Y006386D01*
X011008Y006386D02*
X012080Y006386D01*
X011922Y006545D02*
X011120Y006545D01*
X011120Y006703D02*
X011763Y006703D01*
X011605Y006862D02*
X011120Y006862D01*
X010962Y007020D02*
X011446Y007020D01*
X012995Y008009D02*
X012995Y008096D01*
X013101Y007990D01*
X013223Y007868D01*
X013292Y007868D01*
X013291Y007865D01*
X013291Y007743D01*
X013291Y007712D01*
X012995Y008009D01*
X013033Y007971D02*
X013120Y007971D01*
X013191Y007813D02*
X013291Y007813D01*
X013291Y007743D02*
X013806Y007743D01*
X013806Y007743D01*
X013806Y007743D01*
X013291Y007743D01*
X014544Y009398D02*
X014552Y009398D01*
X014600Y009556D02*
X014488Y009556D01*
X015142Y009873D02*
X015230Y009873D01*
X012921Y010190D02*
X012620Y010190D01*
X012620Y010032D02*
X012763Y010032D01*
X010680Y010349D02*
X010680Y010349D01*
X010680Y010507D02*
X010680Y010507D01*
X007937Y009081D02*
X006923Y009081D01*
X007082Y008922D02*
X007778Y008922D01*
X007620Y008764D02*
X007240Y008764D01*
X007399Y008605D02*
X007461Y008605D01*
X007485Y008629D02*
X007485Y008629D01*
X009245Y007971D02*
X009349Y007971D01*
X003880Y002010D02*
X003706Y002010D01*
X003661Y001998D01*
X003619Y001974D01*
X003586Y001941D01*
X003562Y001899D01*
X003550Y001854D01*
X003550Y001680D01*
X003880Y001680D01*
X003880Y001680D01*
X003880Y001680D01*
X003880Y002010D01*
X003880Y001948D02*
X003880Y001948D01*
X003880Y001790D02*
X003880Y001790D01*
X003880Y001680D02*
X003550Y001680D01*
X003550Y001506D01*
X003562Y001461D01*
X003586Y001419D01*
X003619Y001386D01*
X003661Y001362D01*
X003706Y001350D01*
X003880Y001350D01*
X003880Y001680D01*
X003880Y001631D02*
X003880Y001631D01*
X003880Y001473D02*
X003880Y001473D01*
X003559Y001473D02*
X001135Y001473D01*
X001043Y001631D02*
X003550Y001631D01*
X003550Y001790D02*
X000981Y001790D01*
X000939Y001948D02*
X003593Y001948D01*
X004167Y001948D02*
X004250Y001948D01*
D23*
X004480Y001680D02*
X005680Y001680D01*
X006680Y001680D02*
X008180Y001680D01*
X009180Y001680D02*
X011680Y004180D01*
X011680Y005180D01*
X012353Y005853D01*
X013806Y005853D01*
X013806Y005538D02*
X013038Y005538D01*
X012180Y004680D01*
X013806Y004908D02*
X013806Y003806D01*
X013430Y003430D01*
X012430Y003430D01*
X010680Y001680D01*
X011680Y001680D02*
X012930Y002930D01*
X014180Y002930D01*
X014790Y003540D01*
X014790Y004180D01*
X015105Y004180D02*
X015105Y003355D01*
X014180Y002430D01*
X013430Y002430D01*
X012680Y001680D01*
X013680Y001680D02*
X013930Y001930D01*
X014180Y001930D01*
X015420Y003170D01*
X015420Y004180D01*
X015735Y004180D02*
X015735Y002735D01*
X014680Y001680D01*
X015680Y001680D02*
X016365Y002365D01*
X016365Y004180D01*
X016680Y004180D02*
X016680Y001680D01*
X016995Y002365D02*
X017680Y001680D01*
X018680Y001680D02*
X017310Y003050D01*
X017310Y004180D01*
X016995Y004180D02*
X016995Y002365D01*
X018255Y003105D02*
X019680Y001680D01*
X019680Y002180D02*
X020180Y002180D01*
X020680Y001680D01*
X020680Y002680D02*
X021680Y001680D01*
X022680Y001680D02*
X021180Y003180D01*
X019680Y003180D01*
X019200Y003660D01*
X019200Y004180D01*
X018885Y004180D02*
X018885Y003475D01*
X019680Y002680D01*
X020680Y002680D01*
X019680Y002180D02*
X018570Y003290D01*
X018570Y004180D01*
X018255Y004180D02*
X018255Y003105D01*
X015305Y005305D02*
X014930Y004930D01*
X015305Y005305D02*
X015305Y008180D01*
X015555Y008430D01*
X015868Y008430D01*
X016050Y008613D01*
X016050Y009101D01*
X015735Y009101D02*
X015735Y009735D01*
X016305Y010305D01*
X018305Y010305D01*
X019680Y011680D01*
X020680Y011680D02*
X018930Y009930D01*
X017555Y009930D01*
X017310Y009685D01*
X017310Y009101D01*
X017625Y009101D02*
X017625Y007110D01*
X018055Y006680D01*
X018305Y007180D02*
X017940Y007545D01*
X017940Y009101D01*
X018255Y009101D02*
X018255Y008105D01*
X018680Y007680D01*
X018930Y008180D02*
X018570Y008540D01*
X018570Y009101D01*
X016680Y010680D02*
X016180Y010680D01*
X015420Y009920D01*
X015420Y009101D01*
X014790Y009101D02*
X014790Y009790D01*
X016680Y011680D01*
X015680Y011680D02*
X013180Y009180D01*
X013180Y008180D01*
X013302Y008058D01*
X013806Y008058D01*
X013307Y007428D02*
X012805Y007930D01*
X012805Y009805D01*
X014680Y011680D01*
X013680Y011680D02*
X012430Y010430D01*
X012430Y007805D01*
X013122Y007113D01*
X013806Y007113D01*
X013806Y007428D02*
X013307Y007428D01*
X012937Y006798D02*
X013806Y006798D01*
X013806Y006483D02*
X012752Y006483D01*
X011680Y007555D01*
X011680Y011680D01*
X011305Y011055D02*
X010680Y011680D01*
X011305Y011055D02*
X011305Y007430D01*
X012567Y006168D01*
X013806Y006168D01*
X014538Y005538D02*
X014805Y005805D01*
X014805Y008305D01*
X014493Y008618D01*
X014493Y009180D01*
X014243Y009430D01*
X016680Y010680D02*
X017680Y011680D01*
X012680Y011680D02*
X012055Y011055D01*
X012055Y007680D01*
X012937Y006798D01*
X013806Y005538D02*
X014538Y005538D01*
X010180Y007180D02*
X008805Y007180D01*
X008421Y006796D01*
X007948Y006796D01*
X007948Y007052D02*
X008365Y007052D01*
X009055Y007743D01*
X009055Y008180D01*
X008680Y007930D02*
X008680Y007680D01*
X008308Y007308D01*
X007948Y007308D01*
X007948Y007564D02*
X007948Y007850D01*
X007850Y007948D01*
X007564Y007948D01*
X007564Y008439D01*
X008055Y008930D01*
X008930Y008930D01*
X009180Y008680D01*
X009680Y008680D01*
X009680Y009630D01*
X010680Y009630D02*
X010680Y008680D01*
X007380Y009555D02*
X007380Y010243D01*
X006680Y010430D02*
X002230Y010430D01*
X001630Y010430D02*
X001630Y011180D01*
X002230Y011180D02*
X003493Y011180D01*
X004680Y009680D02*
X002230Y009680D01*
X001630Y009680D02*
X001630Y008930D01*
X002230Y008930D02*
X003493Y008930D01*
X003805Y008805D02*
X004180Y009180D01*
X005380Y009180D01*
X005380Y008555D01*
X004930Y008180D02*
X005118Y007993D01*
X006305Y007993D01*
X006743Y008430D01*
X006930Y008430D01*
X007052Y008308D01*
X007052Y007948D01*
X007308Y007948D02*
X007308Y008427D01*
X006555Y009180D01*
X006930Y009555D01*
X007380Y009555D01*
X006555Y009180D02*
X005980Y009180D01*
X003805Y008805D02*
X003805Y007305D01*
X003192Y006692D01*
X002723Y006692D01*
X002723Y006436D02*
X003373Y006436D01*
X004118Y007180D01*
X004380Y007180D01*
X004380Y007880D01*
X004980Y007180D02*
X005430Y007180D01*
X005805Y006805D02*
X006052Y007052D01*
X006412Y007052D01*
X006412Y006796D02*
X006412Y005573D01*
X007305Y004680D01*
X009680Y004680D01*
X008930Y005180D02*
X007805Y005180D01*
X007052Y005933D01*
X007052Y006412D01*
X006796Y006412D02*
X006796Y005689D01*
X007055Y005430D01*
X007308Y006052D02*
X007308Y006412D01*
X007564Y006412D02*
X007823Y006412D01*
X008555Y005680D01*
X009680Y005680D01*
X008680Y006680D02*
X008430Y006430D01*
X008680Y006680D02*
X009680Y006680D01*
X007430Y007430D02*
X007180Y007180D01*
X005805Y006805D02*
X005805Y005680D01*
X007305Y004180D01*
X008430Y004180D01*
X005430Y006430D02*
X004980Y006430D01*
X004380Y006430D02*
X004380Y005730D01*
X003680Y006180D02*
X002723Y006180D01*
X003680Y006180D02*
X003930Y006430D01*
X004380Y006430D01*
D24*
X005430Y006430D03*
X005430Y007180D03*
X005618Y007618D03*
X004930Y008180D03*
X004993Y008805D03*
X003493Y008930D03*
X004680Y009680D03*
X006493Y008555D03*
X007430Y007430D03*
X008680Y007930D03*
X008618Y008618D03*
X010180Y007180D03*
X008430Y006430D03*
X007805Y005805D03*
X007055Y005430D03*
X008930Y005180D03*
X008430Y004180D03*
X012180Y004680D03*
X014930Y004930D03*
X018055Y006680D03*
X018305Y007180D03*
X018680Y007680D03*
X018930Y008180D03*
X014243Y009430D03*
X006680Y010430D03*
X003493Y011180D03*
D25*
X008618Y008618D02*
X009055Y008180D01*
M02*
