G75*
G70*
%OFA0B0*%
%FSLAX24Y24*%
%IPPOS*%
%LPD*%
%AMOC8*
5,1,8,0,0,1.08239X$1,22.5*
%
%ADD10C,0.0240*%
%ADD11C,0.0050*%
%ADD12C,0.0395*%
%ADD13C,0.0160*%
%ADD14C,0.0100*%
%ADD15C,0.0070*%
%ADD16C,0.0080*%
%ADD17C,0.0060*%
D10*
X006493Y006493D03*
D11*
X003860Y001075D02*
X003680Y001075D01*
X003770Y001075D02*
X003770Y001345D01*
X003680Y001255D01*
X003975Y001300D02*
X003975Y001120D01*
X004155Y001300D01*
X004155Y001120D01*
X004110Y001075D01*
X004020Y001075D01*
X003975Y001120D01*
X003975Y001300D02*
X004020Y001345D01*
X004110Y001345D01*
X004155Y001300D01*
X004269Y001345D02*
X004269Y001075D01*
X004269Y001165D02*
X004404Y001255D01*
X004515Y001210D02*
X004515Y001300D01*
X004560Y001345D01*
X004650Y001345D01*
X004695Y001300D01*
X004695Y001210D01*
X004650Y001165D01*
X004650Y001075D01*
X004695Y001075D01*
X004560Y001075D02*
X004560Y001165D01*
X004515Y001210D01*
X004515Y001075D02*
X004560Y001075D01*
X004404Y001075D02*
X004269Y001165D01*
X005776Y002240D02*
X005776Y002510D01*
X005912Y002510D01*
X005957Y002465D01*
X005957Y002375D01*
X005912Y002330D01*
X005776Y002330D01*
X005662Y002330D02*
X005662Y002465D01*
X005617Y002510D01*
X005572Y002465D01*
X005572Y002330D01*
X005482Y002330D02*
X005482Y002510D01*
X005527Y002510D01*
X005572Y002465D01*
X005367Y002510D02*
X005367Y002330D01*
X005232Y002330D01*
X005187Y002375D01*
X005187Y002510D01*
X005073Y002600D02*
X004983Y002600D01*
X005028Y002600D02*
X005028Y002375D01*
X004983Y002330D01*
X004938Y002330D01*
X004893Y002375D01*
X005205Y002768D02*
X005205Y002968D01*
X005305Y003068D01*
X005405Y002968D01*
X005405Y002768D01*
X005527Y002818D02*
X005577Y002768D01*
X005727Y002768D01*
X005727Y002968D01*
X005850Y002968D02*
X005950Y002968D01*
X005900Y003018D02*
X005900Y002818D01*
X005950Y002768D01*
X006064Y002818D02*
X006114Y002768D01*
X006215Y002768D01*
X006265Y002818D01*
X006265Y002918D01*
X006215Y002968D01*
X006114Y002968D01*
X006064Y002918D01*
X006064Y002818D01*
X006387Y002868D02*
X006487Y002968D01*
X006537Y002968D01*
X006655Y002968D02*
X006655Y002818D01*
X006705Y002768D01*
X006855Y002768D01*
X006855Y002968D01*
X006978Y002968D02*
X007128Y002968D01*
X007178Y002918D01*
X007178Y002768D01*
X007201Y002600D02*
X007381Y002600D01*
X007495Y002600D02*
X007675Y002600D01*
X007585Y002465D02*
X007495Y002465D01*
X007495Y002330D02*
X007495Y002600D01*
X007291Y002465D02*
X007201Y002465D01*
X007201Y002330D02*
X007201Y002600D01*
X007086Y002555D02*
X007041Y002600D01*
X006951Y002600D01*
X006906Y002555D01*
X006906Y002375D01*
X006951Y002330D01*
X007041Y002330D01*
X007086Y002375D01*
X007086Y002555D01*
X006978Y002768D02*
X006978Y002968D01*
X006387Y002968D02*
X006387Y002768D01*
X006366Y002510D02*
X006366Y002330D01*
X006366Y002420D02*
X006456Y002510D01*
X006501Y002510D01*
X006251Y002465D02*
X006251Y002420D01*
X006071Y002420D01*
X006071Y002375D02*
X006071Y002465D01*
X006116Y002510D01*
X006206Y002510D01*
X006251Y002465D01*
X006206Y002330D02*
X006116Y002330D01*
X006071Y002375D01*
X005527Y002818D02*
X005527Y002968D01*
X005405Y002918D02*
X005205Y002918D01*
X008268Y002580D02*
X008268Y002380D01*
X008318Y002330D01*
X008418Y002330D01*
X008468Y002380D01*
X008468Y002580D01*
X008418Y002630D01*
X008318Y002630D01*
X008268Y002580D01*
X008590Y002630D02*
X008790Y002630D01*
X008690Y002630D02*
X008690Y002330D01*
X008912Y002330D02*
X008912Y002530D01*
X009012Y002630D01*
X009112Y002530D01*
X009112Y002330D01*
X009112Y002480D02*
X008912Y002480D01*
X010268Y002530D02*
X010318Y002480D01*
X010418Y002480D01*
X010468Y002430D01*
X010468Y002380D01*
X010418Y002330D01*
X010318Y002330D01*
X010268Y002380D01*
X010268Y002530D02*
X010268Y002580D01*
X010318Y002630D01*
X010418Y002630D01*
X010468Y002580D01*
X010590Y002630D02*
X010740Y002630D01*
X010790Y002580D01*
X010790Y002380D01*
X010740Y002330D01*
X010590Y002330D01*
X010590Y002630D01*
X010912Y002530D02*
X011012Y002630D01*
X011112Y002530D01*
X011112Y002330D01*
X011112Y002480D02*
X010912Y002480D01*
X010912Y002530D02*
X010912Y002330D01*
X011268Y002380D02*
X011318Y002330D01*
X011418Y002330D01*
X011468Y002380D01*
X011468Y002430D01*
X011418Y002480D01*
X011318Y002480D01*
X011268Y002530D01*
X011268Y002580D01*
X011318Y002630D01*
X011418Y002630D01*
X011468Y002580D01*
X011590Y002580D02*
X011590Y002380D01*
X011640Y002330D01*
X011740Y002330D01*
X011790Y002380D01*
X011912Y002330D02*
X012112Y002330D01*
X012268Y002330D02*
X012268Y002630D01*
X012368Y002530D01*
X012468Y002630D01*
X012468Y002330D01*
X012590Y002380D02*
X012640Y002330D01*
X012740Y002330D01*
X012790Y002380D01*
X012790Y002580D01*
X012740Y002630D01*
X012640Y002630D01*
X012590Y002580D01*
X012590Y002380D01*
X012912Y002380D02*
X012962Y002330D01*
X013062Y002330D01*
X013112Y002380D01*
X013112Y002430D01*
X013062Y002480D01*
X012962Y002480D01*
X012912Y002530D01*
X012912Y002580D01*
X012962Y002630D01*
X013062Y002630D01*
X013112Y002580D01*
X013330Y002630D02*
X013430Y002530D01*
X013530Y002630D01*
X013530Y002330D01*
X013652Y002330D02*
X013752Y002330D01*
X013702Y002330D02*
X013702Y002630D01*
X013652Y002630D02*
X013752Y002630D01*
X013867Y002580D02*
X013867Y002530D01*
X013917Y002480D01*
X014017Y002480D01*
X014067Y002430D01*
X014067Y002380D01*
X014017Y002330D01*
X013917Y002330D01*
X013867Y002380D01*
X013867Y002580D02*
X013917Y002630D01*
X014017Y002630D01*
X014067Y002580D01*
X014268Y002580D02*
X014268Y002530D01*
X014318Y002480D01*
X014418Y002480D01*
X014468Y002430D01*
X014468Y002380D01*
X014418Y002330D01*
X014318Y002330D01*
X014268Y002380D01*
X014590Y002380D02*
X014640Y002330D01*
X014740Y002330D01*
X014790Y002380D01*
X014912Y002330D02*
X014912Y002630D01*
X014790Y002580D02*
X014740Y002630D01*
X014640Y002630D01*
X014590Y002580D01*
X014590Y002380D01*
X014468Y002580D02*
X014418Y002630D01*
X014318Y002630D01*
X014268Y002580D01*
X014912Y002430D02*
X015112Y002630D01*
X015268Y002580D02*
X015268Y002530D01*
X015318Y002480D01*
X015418Y002480D01*
X015468Y002430D01*
X015468Y002380D01*
X015418Y002330D01*
X015318Y002330D01*
X015268Y002380D01*
X015112Y002330D02*
X014962Y002480D01*
X015268Y002580D02*
X015318Y002630D01*
X015418Y002630D01*
X015468Y002580D01*
X015590Y002530D02*
X015690Y002630D01*
X015690Y002330D01*
X015590Y002330D02*
X015790Y002330D01*
X015912Y002380D02*
X015962Y002330D01*
X016062Y002330D01*
X016112Y002380D01*
X016112Y002430D01*
X016062Y002480D01*
X016012Y002480D01*
X016062Y002480D02*
X016112Y002530D01*
X016112Y002580D01*
X016062Y002630D01*
X015962Y002630D01*
X015912Y002580D01*
X016268Y002580D02*
X016268Y002530D01*
X016318Y002480D01*
X016418Y002480D01*
X016468Y002430D01*
X016468Y002380D01*
X016418Y002330D01*
X016318Y002330D01*
X016268Y002380D01*
X016268Y002580D02*
X016318Y002630D01*
X016418Y002630D01*
X016468Y002580D01*
X016590Y002530D02*
X016690Y002630D01*
X016690Y002330D01*
X016590Y002330D02*
X016790Y002330D01*
X016912Y002480D02*
X017112Y002480D01*
X017062Y002330D02*
X017062Y002630D01*
X016912Y002480D01*
X017268Y002530D02*
X017268Y002580D01*
X017318Y002630D01*
X017418Y002630D01*
X017468Y002580D01*
X017418Y002480D02*
X017468Y002430D01*
X017468Y002380D01*
X017418Y002330D01*
X017318Y002330D01*
X017268Y002380D01*
X017318Y002480D02*
X017268Y002530D01*
X017318Y002480D02*
X017418Y002480D01*
X017590Y002530D02*
X017690Y002630D01*
X017690Y002330D01*
X017590Y002330D02*
X017790Y002330D01*
X017912Y002380D02*
X017962Y002330D01*
X018062Y002330D01*
X018112Y002380D01*
X018112Y002480D01*
X018062Y002530D01*
X018012Y002530D01*
X017912Y002480D01*
X017912Y002630D01*
X018112Y002630D01*
X018268Y002580D02*
X018268Y002530D01*
X018318Y002480D01*
X018418Y002480D01*
X018468Y002430D01*
X018468Y002380D01*
X018418Y002330D01*
X018318Y002330D01*
X018268Y002380D01*
X018268Y002580D02*
X018318Y002630D01*
X018418Y002630D01*
X018468Y002580D01*
X018590Y002530D02*
X018690Y002630D01*
X018690Y002330D01*
X018590Y002330D02*
X018790Y002330D01*
X018912Y002380D02*
X018962Y002330D01*
X019062Y002330D01*
X019112Y002380D01*
X019112Y002430D01*
X019062Y002480D01*
X018912Y002480D01*
X018912Y002380D01*
X018912Y002480D02*
X019012Y002580D01*
X019112Y002630D01*
X019268Y002580D02*
X019268Y002530D01*
X019318Y002480D01*
X019418Y002480D01*
X019468Y002430D01*
X019468Y002380D01*
X019418Y002330D01*
X019318Y002330D01*
X019268Y002380D01*
X019590Y002330D02*
X019790Y002330D01*
X019690Y002330D02*
X019690Y002630D01*
X019590Y002530D01*
X019468Y002580D02*
X019418Y002630D01*
X019318Y002630D01*
X019268Y002580D01*
X019912Y002630D02*
X020112Y002630D01*
X020112Y002580D01*
X019912Y002380D01*
X019912Y002330D01*
X020268Y002380D02*
X020318Y002330D01*
X020418Y002330D01*
X020468Y002380D01*
X020468Y002430D01*
X020418Y002480D01*
X020318Y002480D01*
X020268Y002530D01*
X020268Y002580D01*
X020318Y002630D01*
X020418Y002630D01*
X020468Y002580D01*
X020590Y002530D02*
X020690Y002630D01*
X020690Y002330D01*
X020590Y002330D02*
X020790Y002330D01*
X020912Y002380D02*
X020912Y002430D01*
X020962Y002480D01*
X021062Y002480D01*
X021112Y002430D01*
X021112Y002380D01*
X021062Y002330D01*
X020962Y002330D01*
X020912Y002380D01*
X020962Y002480D02*
X020912Y002530D01*
X020912Y002580D01*
X020962Y002630D01*
X021062Y002630D01*
X021112Y002580D01*
X021112Y002530D01*
X021062Y002480D01*
X021268Y002530D02*
X021268Y002580D01*
X021318Y002630D01*
X021418Y002630D01*
X021468Y002580D01*
X021418Y002480D02*
X021468Y002430D01*
X021468Y002380D01*
X021418Y002330D01*
X021318Y002330D01*
X021268Y002380D01*
X021318Y002480D02*
X021418Y002480D01*
X021318Y002480D02*
X021268Y002530D01*
X021590Y002530D02*
X021690Y002630D01*
X021690Y002330D01*
X021590Y002330D02*
X021790Y002330D01*
X021912Y002380D02*
X021962Y002330D01*
X022062Y002330D01*
X022112Y002380D01*
X022112Y002580D01*
X022062Y002630D01*
X021962Y002630D01*
X021912Y002580D01*
X021912Y002530D01*
X021962Y002480D01*
X022112Y002480D01*
X022268Y002530D02*
X022268Y002580D01*
X022318Y002630D01*
X022418Y002630D01*
X022468Y002580D01*
X022418Y002480D02*
X022318Y002480D01*
X022268Y002530D01*
X022268Y002380D02*
X022318Y002330D01*
X022418Y002330D01*
X022468Y002380D01*
X022468Y002430D01*
X022418Y002480D01*
X022590Y002580D02*
X022640Y002630D01*
X022740Y002630D01*
X022790Y002580D01*
X022790Y002530D01*
X022590Y002330D01*
X022790Y002330D01*
X022912Y002380D02*
X023112Y002580D01*
X023112Y002380D01*
X023062Y002330D01*
X022962Y002330D01*
X022912Y002380D01*
X022912Y002580D01*
X022962Y002630D01*
X023062Y002630D01*
X023112Y002580D01*
X022655Y003330D02*
X022385Y003330D01*
X022385Y003465D01*
X022430Y003510D01*
X022475Y003510D01*
X022520Y003465D01*
X022520Y003330D01*
X022655Y003330D02*
X022655Y003465D01*
X022610Y003510D01*
X022565Y003510D01*
X022520Y003465D01*
X022655Y003625D02*
X022655Y003715D01*
X022655Y003670D02*
X022385Y003670D01*
X022385Y003625D01*
X022475Y003821D02*
X022610Y003821D01*
X022655Y003866D01*
X022655Y004001D01*
X022475Y004001D01*
X022520Y004116D02*
X022475Y004161D01*
X022475Y004251D01*
X022520Y004296D01*
X022565Y004296D01*
X022565Y004116D01*
X022610Y004116D02*
X022520Y004116D01*
X022610Y004116D02*
X022655Y004161D01*
X022655Y004251D01*
X023010Y004393D02*
X023280Y004393D01*
X023280Y004573D01*
X023235Y004687D02*
X023100Y004687D01*
X023235Y004687D02*
X023280Y004732D01*
X023280Y004867D01*
X023100Y004867D01*
X023190Y004982D02*
X023100Y005117D01*
X023145Y005227D02*
X023100Y005272D01*
X023100Y005362D01*
X023145Y005408D01*
X023190Y005408D01*
X023190Y005227D01*
X023235Y005227D02*
X023145Y005227D01*
X023235Y005227D02*
X023280Y005272D01*
X023280Y005362D01*
X023280Y005117D02*
X023190Y004982D01*
X023280Y004982D02*
X023010Y004982D01*
X022655Y004947D02*
X022610Y004901D01*
X022520Y004901D01*
X022475Y004947D01*
X022475Y005037D01*
X022520Y005082D01*
X022610Y005082D01*
X022655Y005037D01*
X022655Y004947D01*
X022475Y005196D02*
X022475Y005286D01*
X022430Y005241D02*
X022610Y005241D01*
X022655Y005286D01*
X022655Y005393D02*
X022385Y005393D01*
X022475Y005438D02*
X022475Y005528D01*
X022520Y005573D01*
X022655Y005573D01*
X022520Y005393D02*
X022475Y005438D01*
X022155Y005385D02*
X022155Y005205D01*
X021885Y005205D01*
X021975Y005545D02*
X021975Y005635D01*
X022020Y005680D01*
X022155Y005680D01*
X022155Y005545D01*
X022110Y005500D01*
X022065Y005545D01*
X022065Y005680D01*
X022155Y005794D02*
X022155Y005884D01*
X022155Y005839D02*
X021975Y005839D01*
X021975Y005794D01*
X021885Y005839D02*
X021840Y005839D01*
X021975Y005991D02*
X022155Y005991D01*
X022065Y005991D02*
X021975Y006081D01*
X021975Y006126D01*
X022020Y006236D02*
X021975Y006281D01*
X021975Y006416D01*
X021885Y006416D02*
X022155Y006416D01*
X022155Y006281D01*
X022110Y006236D01*
X022020Y006236D01*
X022385Y006277D02*
X022655Y006277D01*
X022655Y006457D01*
X022520Y006367D02*
X022520Y006277D01*
X022385Y006277D02*
X022385Y006457D01*
X022655Y006162D02*
X022655Y005982D01*
X022385Y005982D01*
X023010Y005997D02*
X023280Y005997D01*
X023190Y005907D01*
X023280Y005817D01*
X023010Y005817D01*
X023145Y006111D02*
X023100Y006156D01*
X023100Y006246D01*
X023145Y006291D01*
X023190Y006291D01*
X023190Y006111D01*
X023235Y006111D02*
X023145Y006111D01*
X023235Y006111D02*
X023280Y006156D01*
X023280Y006246D01*
X023280Y006406D02*
X023280Y006541D01*
X023235Y006586D01*
X023190Y006541D01*
X023190Y006451D01*
X023145Y006406D01*
X023100Y006451D01*
X023100Y006586D01*
X023100Y006701D02*
X023100Y006791D01*
X023055Y006746D02*
X023235Y006746D01*
X023280Y006791D01*
X023235Y006897D02*
X023280Y006942D01*
X023280Y007032D01*
X023235Y007077D01*
X023145Y007077D01*
X023100Y007032D01*
X023100Y006942D01*
X023145Y006897D01*
X023235Y006897D01*
X023280Y007192D02*
X023100Y007192D01*
X023100Y007327D01*
X023145Y007372D01*
X023280Y007372D01*
X023370Y007486D02*
X023280Y007576D01*
X023280Y007531D01*
X023235Y007531D01*
X023235Y007576D01*
X023280Y007576D01*
X022655Y007635D02*
X022655Y007500D01*
X022610Y007455D01*
X022520Y007455D01*
X022475Y007500D01*
X022475Y007635D01*
X022385Y007635D02*
X022655Y007635D01*
X022610Y007750D02*
X022655Y007795D01*
X022655Y007930D01*
X022475Y007930D01*
X022385Y008044D02*
X022385Y008089D01*
X022655Y008089D01*
X022655Y008044D02*
X022655Y008135D01*
X022610Y008241D02*
X022520Y008241D01*
X022475Y008286D01*
X022475Y008376D01*
X022520Y008421D01*
X022565Y008421D01*
X022565Y008241D01*
X022610Y008241D02*
X022655Y008286D01*
X022655Y008376D01*
X023010Y008407D02*
X023055Y008452D01*
X023235Y008272D01*
X023280Y008317D01*
X023280Y008407D01*
X023235Y008452D01*
X023055Y008452D01*
X023010Y008407D02*
X023010Y008317D01*
X023055Y008272D01*
X023235Y008272D01*
X023280Y008158D02*
X023280Y007977D01*
X023100Y008158D01*
X023055Y008158D01*
X023010Y008113D01*
X023010Y008022D01*
X023055Y007977D01*
X022610Y007750D02*
X022475Y007750D01*
X022155Y007755D02*
X022110Y007710D01*
X021930Y007890D01*
X022110Y007890D01*
X022155Y007845D01*
X022155Y007755D01*
X022110Y007710D02*
X021930Y007710D01*
X021885Y007755D01*
X021885Y007845D01*
X021930Y007890D01*
X021930Y008004D02*
X021885Y008049D01*
X021885Y008139D01*
X021930Y008184D01*
X022110Y008004D01*
X022155Y008049D01*
X022155Y008139D01*
X022110Y008184D01*
X021930Y008184D01*
X021930Y008004D02*
X022110Y008004D01*
X022110Y007595D02*
X022065Y007595D01*
X022020Y007550D01*
X022020Y007415D01*
X022110Y007415D01*
X022155Y007460D01*
X022155Y007550D01*
X022110Y007595D01*
X021930Y007505D02*
X022020Y007415D01*
X021930Y007505D02*
X021885Y007595D01*
X022155Y007300D02*
X022155Y007120D01*
X021885Y007120D01*
X021930Y007006D02*
X021885Y006961D01*
X021885Y006826D01*
X022155Y006826D01*
X022155Y006961D01*
X022110Y007006D01*
X022065Y007006D01*
X022020Y006961D01*
X022020Y006826D01*
X022020Y006961D02*
X021975Y007006D01*
X021930Y007006D01*
X022385Y007046D02*
X022655Y007046D01*
X022610Y007160D02*
X022655Y007206D01*
X022655Y007296D01*
X022610Y007341D01*
X022520Y007341D01*
X022475Y007296D01*
X022475Y007206D01*
X022520Y007160D01*
X022610Y007160D01*
X022475Y006956D02*
X022385Y007046D01*
X022475Y006956D02*
X022385Y006866D01*
X022655Y006866D01*
X023100Y008567D02*
X023010Y008657D01*
X023280Y008657D01*
X023280Y008567D02*
X023280Y008747D01*
X023235Y008861D02*
X023280Y008906D01*
X023280Y008996D01*
X023235Y009042D01*
X023190Y009042D01*
X023145Y008996D01*
X023145Y008951D01*
X023145Y008996D02*
X023100Y009042D01*
X023055Y009042D01*
X023010Y008996D01*
X023010Y008906D01*
X023055Y008861D01*
X022655Y008830D02*
X022655Y008965D01*
X022610Y009010D01*
X022565Y009010D01*
X022520Y008965D01*
X022520Y008830D01*
X022655Y008830D02*
X022385Y008830D01*
X022385Y008965D01*
X022430Y009010D01*
X022475Y009010D01*
X022520Y008965D01*
X022520Y009125D02*
X022610Y009125D01*
X022655Y009170D01*
X022655Y009260D01*
X022610Y009305D01*
X022520Y009305D01*
X022475Y009260D01*
X022475Y009170D01*
X022520Y009125D01*
X022610Y009419D02*
X022565Y009465D01*
X022565Y009600D01*
X022520Y009600D02*
X022655Y009600D01*
X022655Y009465D01*
X022610Y009419D01*
X022475Y009465D02*
X022475Y009555D01*
X022520Y009600D01*
X022565Y009714D02*
X022475Y009804D01*
X022475Y009849D01*
X022520Y009960D02*
X022475Y010005D01*
X022475Y010140D01*
X022385Y010140D02*
X022655Y010140D01*
X022655Y010005D01*
X022610Y009960D01*
X022520Y009960D01*
X022475Y009714D02*
X022655Y009714D01*
X021404Y009219D02*
X021404Y004180D01*
X019751Y004180D01*
X022430Y004455D02*
X022610Y004455D01*
X022655Y004500D01*
X022610Y004607D02*
X022655Y004652D01*
X022655Y004742D01*
X022610Y004787D01*
X022520Y004787D01*
X022475Y004742D01*
X022475Y004652D01*
X022520Y004607D01*
X022610Y004607D01*
X022475Y004500D02*
X022475Y004410D01*
X014554Y004180D02*
X014003Y004180D01*
X013845Y004180D01*
X013845Y004652D01*
X012175Y004618D02*
X012175Y004568D01*
X012125Y004518D01*
X012025Y004518D01*
X011975Y004568D01*
X012025Y004668D02*
X012125Y004668D01*
X012175Y004618D01*
X012175Y004768D02*
X012125Y004818D01*
X012025Y004818D01*
X011975Y004768D01*
X011975Y004718D01*
X012025Y004668D01*
X011752Y004518D02*
X011752Y004818D01*
X011652Y004818D02*
X011852Y004818D01*
X011530Y004768D02*
X011480Y004818D01*
X011380Y004818D01*
X011330Y004768D01*
X011330Y004568D01*
X011380Y004518D01*
X011480Y004518D01*
X011530Y004568D01*
X011530Y005518D02*
X011430Y005618D01*
X011480Y005618D02*
X011330Y005618D01*
X011330Y005518D02*
X011330Y005818D01*
X011480Y005818D01*
X011530Y005768D01*
X011530Y005668D01*
X011480Y005618D01*
X011652Y005818D02*
X011852Y005818D01*
X011752Y005818D02*
X011752Y005518D01*
X011975Y005568D02*
X012025Y005518D01*
X012125Y005518D01*
X012175Y005568D01*
X012175Y005618D01*
X012125Y005668D01*
X012025Y005668D01*
X011975Y005718D01*
X011975Y005768D01*
X012025Y005818D01*
X012125Y005818D01*
X012175Y005768D01*
X012125Y006518D02*
X012175Y006568D01*
X012175Y006768D01*
X012125Y006818D01*
X011975Y006818D01*
X011975Y006518D01*
X012125Y006518D01*
X011852Y006518D02*
X011652Y006818D01*
X011530Y006768D02*
X011480Y006818D01*
X011330Y006818D01*
X011330Y006518D01*
X011330Y006618D02*
X011480Y006618D01*
X011530Y006668D01*
X011530Y006768D01*
X011430Y006618D02*
X011530Y006518D01*
X011652Y006518D02*
X011852Y006818D01*
X011852Y007518D02*
X011652Y007818D01*
X011530Y007818D02*
X011330Y007818D01*
X011430Y007818D02*
X011430Y007518D01*
X011652Y007518D02*
X011852Y007818D01*
X011975Y007818D02*
X012125Y007818D01*
X012175Y007768D01*
X012175Y007568D01*
X012125Y007518D01*
X011975Y007518D01*
X011975Y007818D01*
X012025Y008518D02*
X011975Y008568D01*
X012025Y008518D02*
X012125Y008518D01*
X012175Y008568D01*
X012175Y008618D01*
X012125Y008668D01*
X012075Y008668D01*
X012125Y008668D02*
X012175Y008718D01*
X012175Y008768D01*
X012125Y008818D01*
X012025Y008818D01*
X011975Y008768D01*
X011852Y008818D02*
X011852Y008618D01*
X011752Y008518D01*
X011652Y008618D01*
X011652Y008818D01*
X011530Y008768D02*
X011480Y008818D01*
X011380Y008818D01*
X011330Y008768D01*
X011430Y008668D02*
X011480Y008668D01*
X011530Y008618D01*
X011530Y008568D01*
X011480Y008518D01*
X011380Y008518D01*
X011330Y008568D01*
X011480Y008668D02*
X011530Y008718D01*
X011530Y008768D01*
X011627Y009825D02*
X011582Y009870D01*
X011762Y010050D01*
X011762Y009870D01*
X011717Y009825D01*
X011627Y009825D01*
X011582Y009870D02*
X011582Y010050D01*
X011627Y010095D01*
X011717Y010095D01*
X011762Y010050D01*
X011876Y010005D02*
X012012Y010005D01*
X012057Y009960D01*
X012057Y009825D01*
X012171Y009825D02*
X012171Y010095D01*
X012351Y010095D01*
X012261Y009960D02*
X012171Y009960D01*
X011876Y010005D02*
X011876Y009825D01*
X011467Y009870D02*
X011422Y009825D01*
X011332Y009825D01*
X011287Y009870D01*
X011467Y010050D01*
X011467Y009870D01*
X011287Y009870D02*
X011287Y010050D01*
X011332Y010095D01*
X011422Y010095D01*
X011467Y010050D01*
X011173Y009825D02*
X010993Y009825D01*
X011083Y009825D02*
X011083Y010095D01*
X010993Y010005D01*
X010962Y010768D02*
X010912Y010818D01*
X010912Y010918D01*
X011062Y010918D01*
X011112Y010868D01*
X011112Y010818D01*
X011062Y010768D01*
X010962Y010768D01*
X010912Y010918D02*
X011012Y011018D01*
X011112Y011068D01*
X011268Y010968D02*
X011368Y011068D01*
X011468Y010968D01*
X011468Y010768D01*
X011590Y010768D02*
X011740Y010768D01*
X011790Y010818D01*
X011790Y011018D01*
X011740Y011068D01*
X011590Y011068D01*
X011590Y010768D01*
X011468Y010918D02*
X011268Y010918D01*
X011268Y010968D02*
X011268Y010768D01*
X010790Y010818D02*
X010790Y011018D01*
X010740Y011068D01*
X010590Y011068D01*
X010590Y010768D01*
X010740Y010768D01*
X010790Y010818D01*
X010468Y010768D02*
X010468Y010968D01*
X010368Y011068D01*
X010268Y010968D01*
X010268Y010768D01*
X010268Y010918D02*
X010468Y010918D01*
X009348Y010546D02*
X009077Y010546D01*
X009077Y010726D01*
X009212Y010636D02*
X009212Y010546D01*
X009212Y010432D02*
X009348Y010432D01*
X009212Y010432D02*
X009167Y010387D01*
X009167Y010251D01*
X009348Y010251D01*
X009302Y010137D02*
X009122Y010137D01*
X009302Y009957D01*
X009348Y010002D01*
X009348Y010092D01*
X009302Y010137D01*
X009122Y010137D02*
X009077Y010092D01*
X009077Y010002D01*
X009122Y009957D01*
X009302Y009957D01*
X009302Y009842D02*
X009122Y009842D01*
X009302Y009662D01*
X009348Y009707D01*
X009348Y009797D01*
X009302Y009842D01*
X009122Y009842D02*
X009077Y009797D01*
X009077Y009707D01*
X009122Y009662D01*
X009302Y009662D01*
X009348Y009548D02*
X009348Y009368D01*
X009348Y009458D02*
X009077Y009458D01*
X009167Y009368D01*
X008266Y009220D02*
X008086Y009220D01*
X008086Y008950D01*
X007972Y008995D02*
X007972Y009085D01*
X007972Y008995D02*
X007927Y008950D01*
X007882Y008950D01*
X007837Y008995D01*
X007837Y008905D01*
X007792Y008860D01*
X007837Y008995D02*
X007837Y009085D01*
X007677Y009175D02*
X007677Y009220D01*
X007497Y009220D01*
X007677Y009175D02*
X007497Y008995D01*
X007497Y008950D01*
X007395Y008950D02*
X007350Y008950D01*
X007350Y008995D01*
X007395Y008995D01*
X007395Y008950D01*
X007190Y008950D02*
X007190Y009220D01*
X007055Y009085D01*
X007235Y009085D01*
X007307Y008720D02*
X007126Y008720D01*
X007126Y008450D01*
X007012Y008450D02*
X007012Y008585D01*
X006967Y008630D01*
X006832Y008630D01*
X006832Y008450D01*
X006717Y008495D02*
X006717Y008675D01*
X006537Y008495D01*
X006582Y008450D01*
X006672Y008450D01*
X006717Y008495D01*
X006537Y008495D02*
X006537Y008675D01*
X006582Y008720D01*
X006672Y008720D01*
X006717Y008675D01*
X006423Y008450D02*
X006243Y008450D01*
X006333Y008450D02*
X006333Y008720D01*
X006243Y008630D01*
X005744Y008233D02*
X005564Y008233D01*
X005564Y007963D01*
X005449Y008008D02*
X005404Y007963D01*
X005269Y007963D01*
X005269Y007872D02*
X005269Y008143D01*
X005404Y008143D01*
X005449Y008098D01*
X005449Y008008D01*
X005564Y008098D02*
X005654Y008098D01*
X005155Y008188D02*
X004975Y008008D01*
X004975Y007963D01*
X004815Y007963D02*
X004815Y008233D01*
X004680Y008098D01*
X004860Y008098D01*
X004975Y008233D02*
X005155Y008233D01*
X005155Y008188D01*
X005288Y007283D02*
X005243Y007238D01*
X005288Y007283D02*
X005378Y007283D01*
X005423Y007238D01*
X005423Y007193D01*
X005243Y007013D01*
X005423Y007013D01*
X005537Y007013D02*
X005537Y007058D01*
X005717Y007238D01*
X005717Y007283D01*
X005537Y007283D01*
X005832Y007238D02*
X005832Y007148D01*
X005877Y007103D01*
X005877Y007013D01*
X005832Y007013D01*
X005967Y007013D02*
X005967Y007103D01*
X006012Y007148D01*
X006012Y007238D01*
X005967Y007283D01*
X005877Y007283D01*
X005832Y007238D01*
X005967Y007013D02*
X006012Y007013D01*
X005967Y006595D02*
X006012Y006550D01*
X006012Y006460D01*
X005967Y006415D01*
X005967Y006325D01*
X006012Y006325D01*
X005877Y006325D02*
X005877Y006415D01*
X005832Y006460D01*
X005832Y006550D01*
X005877Y006595D01*
X005967Y006595D01*
X005717Y006595D02*
X005717Y006550D01*
X005537Y006370D01*
X005537Y006325D01*
X005423Y006325D02*
X005243Y006325D01*
X005423Y006505D01*
X005423Y006550D01*
X005378Y006595D01*
X005288Y006595D01*
X005243Y006550D01*
X005537Y006595D02*
X005717Y006595D01*
X005832Y006325D02*
X005877Y006325D01*
X006205Y006038D02*
X006385Y006038D01*
X006500Y006038D02*
X006680Y006038D01*
X006590Y006038D02*
X006590Y005768D01*
X006794Y005768D02*
X006974Y005948D01*
X006974Y005993D01*
X006929Y006038D01*
X006839Y006038D01*
X006794Y005993D01*
X006794Y005768D02*
X006974Y005768D01*
X007089Y005813D02*
X007134Y005768D01*
X007224Y005768D01*
X007269Y005813D01*
X007269Y005858D01*
X007224Y005903D01*
X007179Y005903D01*
X007224Y005903D02*
X007269Y005948D01*
X007269Y005993D01*
X007224Y006038D01*
X007134Y006038D01*
X007089Y005993D01*
X007384Y005993D02*
X007384Y005813D01*
X007564Y005993D01*
X007564Y005813D01*
X007519Y005768D01*
X007429Y005768D01*
X007384Y005813D01*
X007384Y005993D02*
X007429Y006038D01*
X007519Y006038D01*
X007564Y005993D01*
X007678Y006038D02*
X007858Y005768D01*
X007973Y005813D02*
X008018Y005768D01*
X008108Y005768D01*
X008153Y005813D01*
X008153Y005993D01*
X008108Y006038D01*
X008018Y006038D01*
X007973Y005993D01*
X007973Y005813D01*
X008063Y005858D02*
X008153Y005768D01*
X007858Y006038D02*
X007678Y005768D01*
X006295Y005903D02*
X006205Y005903D01*
X006205Y005768D02*
X006205Y006038D01*
X005744Y005583D02*
X005564Y005583D01*
X005564Y005313D01*
X005449Y005358D02*
X005404Y005313D01*
X005269Y005313D01*
X005269Y005222D02*
X005269Y005493D01*
X005404Y005493D01*
X005449Y005448D01*
X005449Y005358D01*
X005564Y005448D02*
X005654Y005448D01*
X005155Y005538D02*
X004975Y005358D01*
X004975Y005313D01*
X004815Y005313D02*
X004815Y005583D01*
X004680Y005448D01*
X004860Y005448D01*
X004975Y005583D02*
X005155Y005583D01*
X005155Y005538D01*
X001974Y003930D02*
X001974Y003885D01*
X001929Y003840D01*
X001794Y003840D01*
X001680Y003795D02*
X001680Y003750D01*
X001635Y003705D01*
X001545Y003705D01*
X001500Y003750D01*
X001545Y003840D02*
X001635Y003840D01*
X001680Y003795D01*
X001680Y003930D02*
X001635Y003975D01*
X001545Y003975D01*
X001500Y003930D01*
X001500Y003885D01*
X001545Y003840D01*
X001385Y003750D02*
X001340Y003705D01*
X001250Y003705D01*
X001205Y003750D01*
X001205Y003975D01*
X001385Y003975D02*
X001385Y003750D01*
X001794Y003705D02*
X001929Y003705D01*
X001974Y003750D01*
X001974Y003795D01*
X001929Y003840D01*
X001974Y003930D02*
X001929Y003975D01*
X001794Y003975D01*
X001794Y003705D01*
X007126Y008585D02*
X007217Y008585D01*
X008086Y009085D02*
X008176Y009085D01*
X005967Y009495D02*
X005922Y009450D01*
X005787Y009450D01*
X005787Y009720D01*
X005922Y009720D01*
X005967Y009675D01*
X005967Y009630D01*
X005922Y009585D01*
X005787Y009585D01*
X005922Y009585D02*
X005967Y009540D01*
X005967Y009495D01*
X005673Y009720D02*
X005493Y009720D01*
X005493Y009450D01*
X005493Y009585D02*
X005583Y009585D01*
X006993Y010513D02*
X007173Y010513D01*
X007083Y010513D02*
X007083Y010783D01*
X006993Y010693D01*
X007287Y010738D02*
X007287Y010558D01*
X007467Y010738D01*
X007467Y010558D01*
X007422Y010513D01*
X007332Y010513D01*
X007287Y010558D01*
X007287Y010738D02*
X007332Y010783D01*
X007422Y010783D01*
X007467Y010738D01*
X007582Y010738D02*
X007582Y010558D01*
X007762Y010738D01*
X007762Y010558D01*
X007717Y010513D01*
X007627Y010513D01*
X007582Y010558D01*
X007582Y010738D02*
X007627Y010783D01*
X007717Y010783D01*
X007762Y010738D01*
X007876Y010693D02*
X008012Y010693D01*
X008057Y010648D01*
X008057Y010513D01*
X008171Y010513D02*
X008171Y010783D01*
X008351Y010783D01*
X008261Y010648D02*
X008171Y010648D01*
X007876Y010693D02*
X007876Y010513D01*
X011912Y010818D02*
X011962Y010768D01*
X012062Y010768D01*
X012112Y010818D01*
X012112Y010918D01*
X012062Y010968D01*
X012012Y010968D01*
X011912Y010918D01*
X011912Y011068D01*
X012112Y011068D01*
X012268Y010968D02*
X012368Y011068D01*
X012468Y010968D01*
X012468Y010768D01*
X012590Y010768D02*
X012740Y010768D01*
X012790Y010818D01*
X012790Y011018D01*
X012740Y011068D01*
X012590Y011068D01*
X012590Y010768D01*
X012468Y010918D02*
X012268Y010918D01*
X012268Y010968D02*
X012268Y010768D01*
X012912Y010918D02*
X013112Y010918D01*
X013268Y010918D02*
X013468Y010918D01*
X013468Y010968D02*
X013368Y011068D01*
X013268Y010968D01*
X013268Y010768D01*
X013468Y010768D02*
X013468Y010968D01*
X013590Y011068D02*
X013740Y011068D01*
X013790Y011018D01*
X013790Y010818D01*
X013740Y010768D01*
X013590Y010768D01*
X013590Y011068D01*
X013912Y011018D02*
X013962Y011068D01*
X014062Y011068D01*
X014112Y011018D01*
X014112Y010968D01*
X014062Y010918D01*
X014112Y010868D01*
X014112Y010818D01*
X014062Y010768D01*
X013962Y010768D01*
X013912Y010818D01*
X014012Y010918D02*
X014062Y010918D01*
X014268Y010918D02*
X014468Y010918D01*
X014468Y010968D02*
X014368Y011068D01*
X014268Y010968D01*
X014268Y010768D01*
X014468Y010768D02*
X014468Y010968D01*
X014590Y011068D02*
X014740Y011068D01*
X014790Y011018D01*
X014790Y010818D01*
X014740Y010768D01*
X014590Y010768D01*
X014590Y011068D01*
X014912Y011018D02*
X014962Y011068D01*
X015062Y011068D01*
X015112Y011018D01*
X015112Y010968D01*
X014912Y010768D01*
X015112Y010768D01*
X015268Y010768D02*
X015268Y010968D01*
X015368Y011068D01*
X015468Y010968D01*
X015468Y010768D01*
X015590Y010768D02*
X015740Y010768D01*
X015790Y010818D01*
X015790Y011018D01*
X015740Y011068D01*
X015590Y011068D01*
X015590Y010768D01*
X015468Y010918D02*
X015268Y010918D01*
X015912Y010968D02*
X016012Y011068D01*
X016012Y010768D01*
X015912Y010768D02*
X016112Y010768D01*
X016393Y010818D02*
X016443Y010768D01*
X016543Y010768D01*
X016593Y010818D01*
X016593Y010868D01*
X016543Y010918D01*
X016443Y010918D01*
X016393Y010968D01*
X016393Y011018D01*
X016443Y011068D01*
X016543Y011068D01*
X016593Y011018D01*
X016715Y011018D02*
X016765Y011068D01*
X016865Y011068D01*
X016915Y011018D01*
X016715Y010818D01*
X016765Y010768D01*
X016865Y010768D01*
X016915Y010818D01*
X016915Y011018D01*
X016715Y011018D02*
X016715Y010818D01*
X017268Y010818D02*
X017318Y010768D01*
X017418Y010768D01*
X017468Y010818D01*
X017468Y010868D01*
X017418Y010918D01*
X017318Y010918D01*
X017268Y010968D01*
X017268Y011018D01*
X017318Y011068D01*
X017418Y011068D01*
X017468Y011018D01*
X017590Y011018D02*
X017640Y011068D01*
X017740Y011068D01*
X017790Y011018D01*
X017790Y010968D01*
X017740Y010918D01*
X017790Y010868D01*
X017790Y010818D01*
X017740Y010768D01*
X017640Y010768D01*
X017590Y010818D01*
X017690Y010918D02*
X017740Y010918D01*
X017912Y010818D02*
X017912Y011018D01*
X017962Y011068D01*
X018062Y011068D01*
X018112Y011018D01*
X017912Y010818D01*
X017962Y010768D01*
X018062Y010768D01*
X018112Y010818D01*
X018112Y011018D01*
X019268Y011018D02*
X019268Y010968D01*
X019318Y010918D01*
X019418Y010918D01*
X019468Y010868D01*
X019468Y010818D01*
X019418Y010768D01*
X019318Y010768D01*
X019268Y010818D01*
X019590Y010768D02*
X019790Y010968D01*
X019790Y011018D01*
X019740Y011068D01*
X019640Y011068D01*
X019590Y011018D01*
X019468Y011018D02*
X019418Y011068D01*
X019318Y011068D01*
X019268Y011018D01*
X019590Y010768D02*
X019790Y010768D01*
X019912Y010818D02*
X019962Y010768D01*
X020062Y010768D01*
X020112Y010818D01*
X020112Y011018D01*
X020062Y011068D01*
X019962Y011068D01*
X019912Y011018D01*
X019912Y010968D01*
X019962Y010918D01*
X020112Y010918D01*
X020268Y010968D02*
X020318Y010918D01*
X020418Y010918D01*
X020468Y010868D01*
X020468Y010818D01*
X020418Y010768D01*
X020318Y010768D01*
X020268Y010818D01*
X020590Y010768D02*
X020790Y010968D01*
X020790Y011018D01*
X020740Y011068D01*
X020640Y011068D01*
X020590Y011018D01*
X020468Y011018D02*
X020418Y011068D01*
X020318Y011068D01*
X020268Y011018D01*
X020268Y010968D01*
X020590Y010768D02*
X020790Y010768D01*
X020912Y010818D02*
X020962Y010768D01*
X021062Y010768D01*
X021112Y010818D01*
X021112Y010918D01*
X021062Y010968D01*
X021012Y010968D01*
X020912Y010918D01*
X020912Y011068D01*
X021112Y011068D01*
X021268Y011018D02*
X021318Y011068D01*
X021418Y011068D01*
X021468Y011018D01*
X021468Y010968D01*
X021418Y010918D01*
X021468Y010868D01*
X021468Y010818D01*
X021418Y010768D01*
X021318Y010768D01*
X021268Y010818D01*
X021368Y010918D02*
X021418Y010918D01*
X021590Y010868D02*
X021590Y011068D01*
X021790Y011068D02*
X021790Y010868D01*
X021690Y010768D01*
X021590Y010868D01*
X021912Y010818D02*
X021962Y010768D01*
X022062Y010768D01*
X022112Y010818D01*
X022112Y010868D01*
X022062Y010918D01*
X022012Y010918D01*
X022062Y010918D02*
X022112Y010968D01*
X022112Y011018D01*
X022062Y011068D01*
X021962Y011068D01*
X021912Y011018D01*
X022268Y011018D02*
X022268Y010818D01*
X022318Y010768D01*
X022418Y010768D01*
X022468Y010818D01*
X022468Y010918D01*
X022368Y010918D01*
X022468Y011018D02*
X022418Y011068D01*
X022318Y011068D01*
X022268Y011018D01*
X022590Y011068D02*
X022790Y010768D01*
X022790Y011068D01*
X022912Y011068D02*
X023062Y011068D01*
X023112Y011018D01*
X023112Y010818D01*
X023062Y010768D01*
X022912Y010768D01*
X022912Y011068D01*
X022590Y011068D02*
X022590Y010768D01*
X021404Y009219D02*
X019751Y009219D01*
X016042Y009794D02*
X015997Y009749D01*
X015906Y009749D01*
X015861Y009794D01*
X016042Y009974D01*
X016042Y009794D01*
X016042Y009974D02*
X015997Y010020D01*
X015906Y010020D01*
X015861Y009974D01*
X015861Y009794D01*
X015747Y009794D02*
X015702Y009749D01*
X015612Y009749D01*
X015567Y009794D01*
X015747Y009974D01*
X015747Y009794D01*
X015567Y009794D02*
X015567Y009974D01*
X015612Y010020D01*
X015702Y010020D01*
X015747Y009974D01*
X015452Y010020D02*
X015362Y009974D01*
X015272Y009884D01*
X015407Y009884D01*
X015452Y009839D01*
X015452Y009794D01*
X015407Y009749D01*
X015317Y009749D01*
X015272Y009794D01*
X015272Y009884D01*
X015158Y009749D02*
X014978Y009749D01*
X014978Y010020D01*
X014863Y009974D02*
X014818Y010020D01*
X014683Y010020D01*
X014683Y009749D01*
X014818Y009749D01*
X014863Y009794D01*
X014863Y009839D01*
X014818Y009884D01*
X014683Y009884D01*
X014818Y009884D02*
X014863Y009929D01*
X014863Y009974D01*
X014554Y009219D02*
X013845Y009219D01*
X013845Y008589D01*
X013732Y008614D02*
X013555Y008614D01*
X013644Y008614D02*
X013644Y008880D01*
X013555Y008791D01*
X013062Y010768D02*
X013062Y011068D01*
X012912Y010918D01*
X003275Y011075D02*
X003230Y011075D01*
X003230Y011165D01*
X003275Y011210D01*
X003275Y011300D01*
X003230Y011345D01*
X003140Y011345D01*
X003095Y011300D01*
X003095Y011210D01*
X003140Y011165D01*
X003140Y011075D01*
X003095Y011075D01*
X002985Y011075D02*
X002850Y011165D01*
X002985Y011255D01*
X002850Y011345D02*
X002850Y011075D01*
X002735Y011075D02*
X002555Y011075D01*
X002645Y011075D02*
X002645Y011345D01*
X002555Y011255D01*
X002583Y010533D02*
X002583Y010263D01*
X002787Y010263D02*
X002967Y010443D01*
X003082Y010533D02*
X003217Y010533D01*
X003262Y010488D01*
X003262Y010308D01*
X003217Y010263D01*
X003082Y010263D01*
X003082Y010533D01*
X002967Y010263D02*
X002787Y010443D01*
X002673Y010533D02*
X002493Y010533D01*
X002493Y009783D02*
X002628Y009783D01*
X002673Y009738D01*
X002673Y009648D01*
X002628Y009603D01*
X002493Y009603D01*
X002583Y009603D02*
X002673Y009513D01*
X002787Y009513D02*
X002967Y009693D01*
X003082Y009783D02*
X003082Y009513D01*
X003217Y009513D01*
X003262Y009558D01*
X003262Y009738D01*
X003217Y009783D01*
X003082Y009783D01*
X002967Y009513D02*
X002787Y009693D01*
X002493Y009783D02*
X002493Y009513D01*
X002645Y009033D02*
X002645Y008763D01*
X002555Y008763D02*
X002735Y008763D01*
X002850Y008763D02*
X002850Y009033D01*
X002985Y008943D02*
X002850Y008853D01*
X002985Y008763D01*
X003095Y008763D02*
X003140Y008763D01*
X003140Y008853D01*
X003095Y008898D01*
X003095Y008988D01*
X003140Y009033D01*
X003230Y009033D01*
X003275Y008988D01*
X003275Y008898D01*
X003230Y008853D01*
X003230Y008763D01*
X003275Y008763D01*
X002645Y009033D02*
X002555Y008943D01*
X011590Y002580D02*
X011640Y002630D01*
X011740Y002630D01*
X011790Y002580D01*
X011912Y002630D02*
X011912Y002330D01*
X013330Y002330D02*
X013330Y002630D01*
D12*
X013180Y008368D03*
D13*
X010180Y009430D02*
X010180Y009733D01*
X010180Y010127D02*
X010180Y010430D01*
X009944Y010666D01*
X009666Y010944D02*
X009430Y011180D01*
X008964Y011180D01*
X008570Y011180D02*
X008104Y011180D01*
X007710Y011180D02*
X007244Y011180D01*
X006851Y011180D02*
X006384Y011180D01*
X005991Y011180D02*
X005525Y011180D01*
X005131Y011180D02*
X004665Y011180D01*
X004271Y011180D02*
X003805Y011180D01*
X003444Y011541D01*
X003166Y011819D02*
X002805Y012180D01*
X002221Y012180D01*
X001827Y012180D02*
X001243Y012180D01*
X009975Y003788D02*
X010180Y003993D01*
X009697Y003510D02*
X009493Y003305D01*
X009061Y003305D01*
X008667Y003305D02*
X008235Y003305D01*
X007841Y003305D02*
X007410Y003305D01*
X007016Y003305D02*
X006584Y003305D01*
X006190Y003305D02*
X005758Y003305D01*
X005365Y003305D02*
X004933Y003305D01*
X004539Y003305D02*
X004107Y003305D01*
X003714Y003305D02*
X003282Y003305D01*
X002888Y003305D02*
X002456Y003305D01*
X002062Y003305D02*
X001631Y003305D01*
X001237Y003305D02*
X000805Y003305D01*
D14*
X004130Y001780D02*
X004230Y001780D01*
X004230Y001580D02*
X004130Y001580D01*
X004280Y005380D02*
X004280Y005480D01*
X004480Y005480D02*
X004480Y005380D01*
X004630Y006330D02*
X004730Y006330D01*
X004730Y006530D02*
X004630Y006530D01*
X004630Y007080D02*
X004730Y007080D01*
X004730Y007280D02*
X004630Y007280D01*
X004480Y008130D02*
X004480Y008230D01*
X004280Y008230D02*
X004280Y008130D01*
X005630Y008455D02*
X005730Y008455D01*
X005730Y008655D02*
X005630Y008655D01*
X005630Y009080D02*
X005730Y009080D01*
X005730Y009280D02*
X005630Y009280D01*
X007630Y009455D02*
X007730Y009455D01*
X007730Y009655D02*
X007630Y009655D01*
X007630Y010143D02*
X007730Y010143D01*
X007730Y010343D02*
X007630Y010343D01*
X009580Y009980D02*
X009580Y009880D01*
X009780Y009880D02*
X009780Y009980D01*
X010580Y009980D02*
X010580Y009880D01*
X010780Y009880D02*
X010780Y009980D01*
X001980Y009030D02*
X001880Y009030D01*
X001880Y008830D02*
X001980Y008830D01*
X001980Y011080D02*
X001880Y011080D01*
X001880Y011280D02*
X001980Y011280D01*
D15*
X002000Y010600D02*
X002000Y010430D01*
X001860Y010280D01*
X001860Y010580D01*
X002001Y010430D01*
X002000Y010430D02*
X002000Y010260D01*
X002000Y009850D02*
X002000Y009680D01*
X001860Y009530D01*
X001860Y009830D01*
X002001Y009680D01*
X002000Y009680D02*
X002000Y009510D01*
D16*
X002172Y007519D02*
X002802Y007519D01*
X002802Y007046D01*
X002251Y007046D01*
X002251Y005314D01*
X002802Y005314D01*
X002802Y004841D01*
X002172Y004841D01*
X001109Y004841D02*
X001109Y007519D01*
X010180Y011430D02*
X010430Y011180D01*
X010930Y011180D01*
X011180Y011430D01*
X011430Y011180D01*
X011930Y011180D01*
X012180Y011430D01*
X012430Y011180D01*
X012930Y011180D01*
X013180Y011430D01*
X013430Y011180D01*
X013930Y011180D01*
X014180Y011430D01*
X014430Y011180D01*
X014930Y011180D01*
X015180Y011430D01*
X015430Y011180D01*
X015930Y011180D01*
X016180Y011430D01*
X016430Y011180D01*
X016930Y011180D01*
X017180Y011430D01*
X017430Y011180D01*
X017930Y011180D01*
X018180Y011430D01*
X018180Y011930D01*
X017930Y012180D01*
X017430Y012180D01*
X017180Y011930D01*
X016930Y012180D01*
X016430Y012180D01*
X016180Y011930D01*
X015930Y012180D01*
X015430Y012180D01*
X015180Y011930D01*
X014930Y012180D01*
X014430Y012180D01*
X014180Y011930D01*
X013930Y012180D01*
X013430Y012180D01*
X013180Y011930D01*
X012930Y012180D01*
X012430Y012180D01*
X012180Y011930D01*
X011930Y012180D01*
X011430Y012180D01*
X011180Y011930D01*
X010930Y012180D01*
X010430Y012180D01*
X010180Y011930D01*
X010180Y011430D01*
X019180Y011430D02*
X019430Y011180D01*
X019930Y011180D01*
X020180Y011430D01*
X020430Y011180D01*
X020930Y011180D01*
X021180Y011430D01*
X021430Y011180D01*
X021930Y011180D01*
X022180Y011430D01*
X022430Y011180D01*
X022930Y011180D01*
X023180Y011430D01*
X023180Y011930D01*
X022930Y012180D01*
X022430Y012180D01*
X022180Y011930D01*
X021930Y012180D01*
X021430Y012180D01*
X021180Y011930D01*
X020930Y012180D01*
X020430Y012180D01*
X020180Y011930D01*
X019930Y012180D01*
X019430Y012180D01*
X019180Y011930D01*
X019180Y011430D01*
X018930Y002180D02*
X018430Y002180D01*
X018180Y001930D01*
X018180Y001430D01*
X018430Y001180D01*
X018930Y001180D01*
X019180Y001430D01*
X019430Y001180D01*
X019930Y001180D01*
X020180Y001430D01*
X020430Y001180D01*
X020930Y001180D01*
X021180Y001430D01*
X021430Y001180D01*
X021930Y001180D01*
X022180Y001430D01*
X022430Y001180D01*
X022930Y001180D01*
X023180Y001430D01*
X023180Y001930D01*
X022930Y002180D01*
X022430Y002180D01*
X022180Y001930D01*
X021930Y002180D01*
X021430Y002180D01*
X021180Y001930D01*
X020930Y002180D01*
X020430Y002180D01*
X020180Y001930D01*
X019930Y002180D01*
X019430Y002180D01*
X019180Y001930D01*
X018930Y002180D01*
X018180Y001930D02*
X018180Y001430D01*
X017930Y001180D01*
X017430Y001180D01*
X017180Y001430D01*
X016930Y001180D01*
X016430Y001180D01*
X016180Y001430D01*
X015930Y001180D01*
X015430Y001180D01*
X015180Y001430D01*
X014930Y001180D01*
X014430Y001180D01*
X014180Y001430D01*
X013930Y001180D01*
X013430Y001180D01*
X013180Y001430D01*
X012930Y001180D01*
X012430Y001180D01*
X012180Y001430D01*
X011930Y001180D01*
X011430Y001180D01*
X011180Y001430D01*
X010930Y001180D01*
X010430Y001180D01*
X010180Y001430D01*
X010180Y001930D01*
X010430Y002180D01*
X010930Y002180D01*
X011180Y001930D01*
X011430Y002180D01*
X011930Y002180D01*
X012180Y001930D01*
X012430Y002180D01*
X012930Y002180D01*
X013180Y001930D01*
X013430Y002180D01*
X013930Y002180D01*
X014180Y001930D01*
X014430Y002180D01*
X014930Y002180D01*
X015180Y001930D01*
X015430Y002180D01*
X015930Y002180D01*
X016180Y001930D01*
X016430Y002180D01*
X016930Y002180D01*
X017180Y001930D01*
X017430Y002180D01*
X017930Y002180D01*
X018180Y001930D01*
X009680Y001930D02*
X009680Y001430D01*
X009430Y001180D01*
X008930Y001180D01*
X008680Y001430D01*
X008430Y001180D01*
X007930Y001180D01*
X007680Y001430D01*
X007680Y001930D01*
X007930Y002180D01*
X008430Y002180D01*
X008680Y001930D01*
X008930Y002180D01*
X009430Y002180D01*
X009680Y001930D01*
X007180Y001930D02*
X007180Y001430D01*
X006930Y001180D01*
X006430Y001180D01*
X006180Y001430D01*
X005930Y001180D01*
X005430Y001180D01*
X005180Y001430D01*
X005180Y001930D01*
X005430Y002180D01*
X005930Y002180D01*
X006180Y001930D01*
X006430Y002180D01*
X006930Y002180D01*
X007180Y001930D01*
D17*
X009430Y004180D02*
X010930Y004180D01*
X011180Y004430D01*
X011180Y004930D01*
X010930Y005180D01*
X009430Y005180D01*
X009180Y004930D01*
X009180Y004430D01*
X009430Y004180D01*
X009430Y005180D02*
X009180Y005430D01*
X009180Y005930D01*
X009430Y006180D01*
X010930Y006180D01*
X011180Y005930D01*
X011180Y005430D01*
X010930Y005180D01*
X010930Y006180D02*
X011180Y006430D01*
X011180Y006930D01*
X010930Y007180D01*
X009430Y007180D01*
X009180Y006930D01*
X009180Y006430D01*
X009430Y006180D01*
X009430Y007180D02*
X009180Y007430D01*
X009180Y007930D01*
X009430Y008180D01*
X010930Y008180D01*
X011180Y007930D01*
X011180Y007430D01*
X010930Y007180D01*
X010930Y008180D02*
X011180Y008430D01*
X011180Y008930D01*
X010930Y009180D01*
X009430Y009180D01*
X009180Y008930D01*
X009180Y008430D01*
X009430Y008180D01*
M02*
