%
M48
M72
T01C0.0130
T02C0.0400
%
T01
X8430Y4180
X8930Y5180
X7805Y5805
X7055Y5430
X8430Y6430
X7430Y7430
X8680Y7930
X8618Y8618
X6493Y8555
X4993Y8805
X4930Y8180
X5618Y7618
X5430Y7180
X5430Y6430
X3493Y8930
X4680Y9680
X6680Y10430
X3493Y11180
X10180Y7180
X14243Y9430
X18305Y7180
X18055Y6680
X18680Y7680
X18930Y8180
X14930Y4930
X12180Y4680
T02
X5680Y1680
X6680Y1680
X8180Y1680
X9180Y1680
X10680Y1680
X11680Y1680
X12680Y1680
X13680Y1680
X14680Y1680
X15680Y1680
X16680Y1680
X17680Y1680
X18680Y1680
X19680Y1680
X20680Y1680
X21680Y1680
X22680Y1680
X10680Y4680
X9680Y4680
X9680Y5680
X10680Y5680
X10680Y6680
X9680Y6680
X9680Y7680
X10680Y7680
X10680Y8680
X9680Y8680
X10680Y11680
X11680Y11680
X12680Y11680
X13680Y11680
X14680Y11680
X15680Y11680
X16680Y11680
X17680Y11680
X19680Y11680
X20680Y11680
X21680Y11680
X22680Y11680
M30
