G75*
G70*
%OFA0B0*%
%FSLAX24Y24*%
%IPPOS*%
%LPD*%
%AMOC8*
5,1,8,0,0,1.08239X$1,22.5*
%
%ADD10R,0.0277X0.0749*%
%ADD11R,0.0749X0.0277*%
%ADD12R,0.0380X0.0380*%
%ADD13R,0.0907X0.0907*%
%ADD14R,0.0513X0.0218*%
%ADD15R,0.0218X0.0513*%
%ADD16R,0.0680X0.0680*%
%ADD17C,0.0680*%
%ADD18OC8,0.0680*%
%ADD19R,0.0631X0.0218*%
%ADD20R,0.0828X0.0789*%
D10*
X014790Y004180D03*
X015105Y004180D03*
X015420Y004180D03*
X015735Y004180D03*
X016050Y004180D03*
X016365Y004180D03*
X016680Y004180D03*
X016995Y004180D03*
X017310Y004180D03*
X017625Y004180D03*
X017940Y004180D03*
X018255Y004180D03*
X018570Y004180D03*
X018885Y004180D03*
X019200Y004180D03*
X019515Y004180D03*
X019515Y009101D03*
X019200Y009101D03*
X018885Y009101D03*
X018570Y009101D03*
X018255Y009101D03*
X017940Y009101D03*
X017625Y009101D03*
X017310Y009101D03*
X016995Y009101D03*
X016680Y009101D03*
X016365Y009101D03*
X016050Y009101D03*
X015735Y009101D03*
X015420Y009101D03*
X015105Y009101D03*
X014790Y009101D03*
D11*
X013806Y008373D03*
X013806Y008058D03*
X013806Y007743D03*
X013806Y007428D03*
X013806Y007113D03*
X013806Y006798D03*
X013806Y006483D03*
X013806Y006168D03*
X013806Y005853D03*
X013806Y005538D03*
X013806Y005223D03*
X013806Y004908D03*
D12*
X003880Y001680D03*
X004480Y001680D03*
X004380Y005130D03*
X004380Y005730D03*
X004380Y006430D03*
X004980Y006430D03*
X004980Y007180D03*
X004380Y007180D03*
X004380Y007880D03*
X004380Y008480D03*
X005380Y008555D03*
X005980Y008555D03*
X005980Y009180D03*
X005380Y009180D03*
X007380Y009555D03*
X007980Y009555D03*
X007980Y010243D03*
X007380Y010243D03*
X009680Y010230D03*
X009680Y009630D03*
X010680Y009630D03*
X010680Y010230D03*
X002230Y010430D03*
X001630Y010430D03*
X001630Y011180D03*
X002230Y011180D03*
X002230Y009680D03*
X001630Y009680D03*
X001630Y008930D03*
X002230Y008930D03*
D13*
X007180Y007180D03*
D14*
X006412Y007052D03*
X006412Y006796D03*
X006412Y007308D03*
X006412Y007564D03*
X007948Y007564D03*
X007948Y007308D03*
X007948Y007052D03*
X007948Y006796D03*
D15*
X007564Y006412D03*
X007308Y006412D03*
X007052Y006412D03*
X006796Y006412D03*
X006796Y007948D03*
X007052Y007948D03*
X007308Y007948D03*
X007564Y007948D03*
D16*
X010680Y011680D03*
X019680Y011680D03*
X010680Y001680D03*
D17*
X011680Y001680D03*
X012680Y001680D03*
X013680Y001680D03*
X014680Y001680D03*
X015680Y001680D03*
X016680Y001680D03*
X017680Y001680D03*
X018680Y001680D03*
X019680Y001680D03*
X020680Y001680D03*
X021680Y001680D03*
X022680Y001680D03*
X009180Y001680D03*
X008180Y001680D03*
X006680Y001680D03*
X005680Y001680D03*
X011680Y011680D03*
X012680Y011680D03*
X013680Y011680D03*
X014680Y011680D03*
X015680Y011680D03*
X016680Y011680D03*
X017680Y011680D03*
X020680Y011680D03*
X021680Y011680D03*
X022680Y011680D03*
D18*
X010680Y008680D03*
X009680Y008680D03*
X009680Y007680D03*
X010680Y007680D03*
X010680Y006680D03*
X009680Y006680D03*
X009680Y005680D03*
X010680Y005680D03*
X010680Y004680D03*
X009680Y004680D03*
D19*
X002723Y005668D03*
X002723Y005924D03*
X002723Y006180D03*
X002723Y006436D03*
X002723Y006692D03*
D20*
X001680Y007755D03*
X001680Y004605D03*
M02*
